<svg width="256" height="256" viewBox="0 0 256 256" fill="none" xmlns="http://www.w3.org/2000/svg">
<g clip-path="url(#clip0_16_310)">
<path d="M196 0H60C26.8629 0 0 26.8629 0 60V196C0 229.137 26.8629 256 60 256H196C229.137 256 256 229.137 256 196V60C256 26.8629 229.137 0 196 0Z" fill="url(#paint0_linear_16_310)"/>
<path d="M119.944 167.7L142.882 210.821C142.882 210.821 145.264 215.872 162.418 206.033C172.181 200.43 181.33 190.317 176.322 184.666C173.585 181.58 164.546 183.717 160.414 183.842C136.839 184.547 119.944 167.7 119.944 167.7Z" fill="url(#paint1_linear_16_310)"/>
<path d="M162.514 206.033C158.631 208.477 154.51 210.586 150.1 212.311C146.122 213.893 142.096 215.187 138.022 216.05C137.351 216.194 136.68 216.337 136.009 216.481C102.555 223.095 68.2869 207.71 52.2789 178.091C47.2465 180.2 41.3992 180.918 39.578 177.755C37.517 174.256 41.2554 167.163 46.24 163.712C46.24 163.664 46.192 163.616 46.192 163.568V163.521C41.3992 144.349 54.196 124.028 76.3388 122.254C82.5215 121.775 88.4167 123.069 93.6409 125.753C95.1746 126.52 96.6603 127.431 98.0503 128.437C98.3378 128.677 98.6733 128.869 98.9609 129.156C101.645 131.217 104.041 133.709 106.054 136.537C112.189 135.914 120.145 138.933 120.672 142.72C121.104 145.691 116.886 148.279 112.141 149.717C117.317 162.706 132.558 193.859 162.514 206.033Z" fill="url(#paint2_linear_16_310)"/>
<path d="M162.514 206.033C158.631 208.477 154.51 210.586 150.1 212.311C146.122 213.893 142.096 215.187 138.022 216.05C139.748 206.752 124.123 180.631 115.688 165.294C110.895 156.667 103.035 139.604 98.9609 129.156C101.645 131.217 104.041 133.709 106.054 136.537C112.189 135.914 120.145 138.933 120.672 142.72C121.104 145.691 116.886 148.279 112.141 149.717C117.317 162.706 132.558 193.859 162.514 206.033Z" fill="url(#paint3_linear_16_310)"/>
<path d="M189.829 80.7253L189.68 62.2778L178.556 47.7699C178.556 47.7699 172.062 42.7279 170.94 42.033C165.572 38.7115 157.535 35.069 154.343 41.7262C152.598 45.364 157.669 52.8168 159.389 56.4593C166.919 72.3954 164.326 79.5703 157.535 106.851L189.829 80.7253Z" fill="url(#paint4_linear_16_310)"/>
<path d="M216.755 115.78C216.755 118.512 210.093 123.832 203.91 127.666V127.714C208.032 128.002 211.435 129.152 211.435 131.884C211.435 135.047 202.28 141.853 195.475 145.591C192.982 149.378 190.155 152.972 186.895 156.279C186.464 156.711 186.081 157.094 185.649 157.477C184.355 158.771 182.917 160.018 181.48 161.216V161.264C166.574 172.527 144 168.741 134.175 149.953C130.149 142.284 129.621 133.657 132.162 125.845C133.743 120.908 136.523 116.259 140.405 112.377C140.453 112.329 140.501 112.281 140.549 112.233C169.162 83.5723 174.29 59.4165 168.395 40.5807C175.489 44.1274 181.863 49.6392 187.279 56.0615C198.302 69.098 205.348 85.729 206.642 96.5608C211.339 96.1294 216.371 96.8484 216.898 100.299C217.234 102.791 212.968 107.728 208.607 111.61C212.968 111.802 216.755 112.952 216.755 115.78Z" fill="url(#paint5_linear_16_310)"/>
<path d="M187.279 56.0615C181.384 56.445 178.22 62.8194 177.549 65.8868C174.818 78.0605 166.957 91.0011 159.385 100.491C154.592 106.434 140.741 119.614 132.161 125.845C133.743 120.908 136.523 116.259 140.405 112.377C140.453 112.329 140.501 112.281 140.549 112.233C169.162 83.5723 174.29 59.4165 168.395 40.5807C175.489 44.1274 181.863 49.6392 187.279 56.0615Z" fill="url(#paint6_linear_16_310)"/>
</g>
<defs>
<linearGradient id="paint0_linear_16_310" x1="0" y1="0" x2="256" y2="256" gradientUnits="userSpaceOnUse">
<stop stop-color="#928DAB"/>
<stop offset="1" stop-color="#1F1C2C"/>
</linearGradient>
<linearGradient id="paint1_linear_16_310" x1="148.84" y1="165.821" x2="148.84" y2="234.128" gradientUnits="userSpaceOnUse">
<stop stop-color="#21AD64"/>
<stop offset="1" stop-color="#088242"/>
</linearGradient>
<linearGradient id="paint2_linear_16_310" x1="102.589" y1="106.189" x2="99.5456" y2="246.556" gradientUnits="userSpaceOnUse">
<stop stop-color="#7DFFCE"/>
<stop offset="1" stop-color="#50C08D"/>
</linearGradient>
<linearGradient id="paint3_linear_16_310" x1="130.737" y1="107.584" x2="130.737" y2="222.683" gradientUnits="userSpaceOnUse">
<stop stop-color="#7DFFCE"/>
<stop offset="1" stop-color="#50C08D"/>
</linearGradient>
<linearGradient id="paint4_linear_16_310" x1="153.988" y1="72.4242" x2="189.829" y2="72.4242" gradientUnits="userSpaceOnUse">
<stop stop-color="#D95F6A"/>
<stop offset="0.014" stop-color="#D85C67"/>
<stop offset="0.142" stop-color="#CE424E"/>
<stop offset="0.285" stop-color="#C72F3A"/>
<stop offset="0.449" stop-color="#C2212C"/>
<stop offset="0.65" stop-color="#BF1824"/>
<stop offset="1" stop-color="#BE1622"/>
</linearGradient>
<linearGradient id="paint5_linear_16_310" x1="173.763" y1="41.3572" x2="173.763" y2="204.749" gradientUnits="userSpaceOnUse">
<stop stop-color="#F44F5A"/>
<stop offset="0.443" stop-color="#EE3D4A"/>
<stop offset="1" stop-color="#E52030"/>
</linearGradient>
<linearGradient id="paint6_linear_16_310" x1="159.72" y1="16.655" x2="159.72" y2="136.758" gradientUnits="userSpaceOnUse">
<stop stop-color="#F44F5A"/>
<stop offset="0.443" stop-color="#EE3D4A"/>
<stop offset="1" stop-color="#E52030"/>
</linearGradient>
<clipPath id="clip0_16_310">
<rect width="256" height="256" fill="white"/>
</clipPath>
</defs>
</svg>
