<svg width="32" height="32" xmlns="http://www.w3.org/2000/svg">
 <title>file_type_tailwind</title>
 <defs>
  <filter id="svg_1_blur">
   <feGaussianBlur stdDeviation="0" in="SourceGraphic"/>
  </filter>
 </defs>
 <g>
  <title>Layer 1</title>
  <path filter="url(#svg_1_blur)" id="svg_1" fill="#38bdf9" d="m9,13.7q1.4,-5.6 7,-5.6c5.6,0 6.3,4.2 9.1,4.9q2.8,0.7 4.9,-2.1q-1.4,5.6 -7,5.6c-5.6,0 -6.3,-4.2 -9.1,-4.9q-2.8,-0.7 -4.9,2.1zm-7,8.4q1.4,-5.6 7,-5.6c5.6,0 6.3,4.2 9.1,4.9q2.8,0.7 4.9,-2.1q-1.4,5.6 -7,5.6c-5.6,0 -6.3,-4.2 -9.1,-4.9q-2.8,-0.7 -4.9,2.1z"/>
 </g>
</svg>