<svg width="256" height="256" viewBox="0 0 256 256" fill="none" xmlns="http://www.w3.org/2000/svg">
<g clip-path="url(#clip0_13_141)">
<path d="M196 0H60C26.8629 0 0 26.8629 0 60V196C0 229.137 26.8629 256 60 256H196C229.137 256 256 229.137 256 196V60C256 26.8629 229.137 0 196 0Z" fill="url(#paint0_linear_13_141)"/>
<path d="M210.267 159.491C216.794 163.356 216.846 169.483 210.366 173.243L194.049 182.772L61.1588 182.667L44.9014 173.243C38.3749 169.431 38.3749 163.303 44.8491 159.491L115.483 118.226C122.899 114.394 131.714 114.394 139.13 118.226L210.267 159.491Z" fill="url(#paint1_linear_13_141)"/>
<path d="M210.267 126.858C216.794 130.671 216.794 136.799 210.32 140.611L194.069 150.1L61.1261 150.022L44.9014 140.611C38.3749 136.799 38.3749 130.671 44.8491 126.858L115.483 85.5414C122.009 81.7288 132.551 81.7288 139.078 85.5414L210.267 126.858Z" fill="url(#paint2_linear_13_141)"/>
<path d="M210.372 95.5076C216.833 99.4772 216.735 105.552 210.202 109.26L194.795 117.932L61.9109 116.866L44.8557 106.599C38.3946 102.682 38.4927 96.554 45.0257 92.7937L116.314 52.6735C122.899 48.9656 133.441 49.1356 139.954 53.0528L210.372 95.5076Z" fill="url(#paint3_linear_13_141)"/>
<path d="M194.069 150.1L166.112 166.429L89.2921 166.364L61.1196 150.035L89.4359 133.424L115.333 148.988C121.807 152.912 132.335 153.108 138.94 149.381L166.276 134.013L194.069 150.1Z" fill="url(#paint4_linear_13_141)"/>
<path d="M194.069 182.798L139.66 214.58C133.186 218.373 122.592 218.373 116.052 214.58L61.1196 182.732L89.4359 166.122L166.276 166.71L194.069 182.798Z" fill="url(#paint5_linear_13_141)"/>
<path d="M166.014 166.449L139.66 181.882C133.186 185.675 122.592 185.675 116.052 181.882L89.1089 166.253L115.463 150.885C116.117 150.558 116.771 150.231 117.425 149.969L137.371 150.1C137.959 150.296 138.548 150.558 139.137 150.885L166.014 166.449Z" fill="#2B73C2"/>
<path d="M194.788 117.925L138.94 149.381C132.335 153.108 121.807 152.912 115.333 148.988L61.9043 116.879L115.463 85.5545C122.003 81.6962 132.532 81.6962 139.071 85.5545L194.788 117.925Z" fill="url(#paint6_linear_13_141)"/>
</g>
<defs>
<linearGradient id="paint0_linear_13_141" x1="128" y1="0" x2="128" y2="256" gradientUnits="userSpaceOnUse">
<stop stop-color="#3B6196"/>
<stop offset="1" stop-color="#092347"/>
</linearGradient>
<linearGradient id="paint1_linear_13_141" x1="104.052" y1="207.334" x2="151.235" y2="125.295" gradientUnits="userSpaceOnUse">
<stop stop-color="#1F4772"/>
<stop offset="1" stop-color="#222D6F"/>
</linearGradient>
<linearGradient id="paint2_linear_13_141" x1="61.1719" y1="95.2003" x2="193.977" y2="172.223" gradientUnits="userSpaceOnUse">
<stop stop-color="#00A9FF" stop-opacity="0.73"/>
<stop offset="0.493" stop-color="#1464A3" stop-opacity="0.725"/>
<stop offset="0.98" stop-color="#6C92F8" stop-opacity="0.72"/>
<stop offset="1" stop-color="#6C91F8" stop-opacity="0.72"/>
</linearGradient>
<linearGradient id="paint3_linear_13_141" x1="41.3394" y1="80.9052" x2="216.439" y2="80.9107" gradientUnits="userSpaceOnUse">
<stop stop-color="#0379D6"/>
<stop offset="0.98" stop-color="#41E9D2"/>
</linearGradient>
<linearGradient id="paint4_linear_13_141" x1="110.918" y1="121.071" x2="144.205" y2="178.946" gradientUnits="userSpaceOnUse">
<stop stop-color="#1574B9"/>
<stop offset="1" stop-color="#3E61B4"/>
</linearGradient>
<linearGradient id="paint5_linear_13_141" x1="127.594" y1="217.425" x2="127.594" y2="166.174" gradientUnits="userSpaceOnUse">
<stop stop-color="#2F4E85"/>
<stop offset="1" stop-color="#323984"/>
</linearGradient>
<linearGradient id="paint6_linear_13_141" x1="61.7212" y1="117.356" x2="194.932" y2="117.356" gradientUnits="userSpaceOnUse">
<stop stop-color="#0A96F2"/>
<stop offset="1" stop-color="#43E6E1"/>
</linearGradient>
<clipPath id="clip0_13_141">
<rect width="256" height="256" fill="white"/>
</clipPath>
</defs>
</svg>
