<svg width="256" height="256" viewBox="0 0 256 256" fill="none" xmlns="http://www.w3.org/2000/svg">
<g clip-path="url(#clip0_13_223)">
<path d="M196 0H60C26.8629 0 0 26.8629 0 60V196C0 229.137 26.8629 256 60 256H196C229.137 256 256 229.137 256 196V60C256 26.8629 229.137 0 196 0Z" fill="url(#paint0_linear_13_223)"/>
<path d="M135.344 215.995C178.647 215.995 213.751 179.904 213.751 135.387C213.751 90.8708 178.647 54.7792 135.344 54.7792C92.0405 54.7792 56.936 90.8708 56.936 135.387C56.936 179.904 92.0405 215.995 135.344 215.995Z" fill="url(#paint1_radial_13_223)"/>
<path opacity="0.5" d="M135.344 215.995C178.647 215.995 213.751 179.904 213.751 135.387C213.751 90.8708 178.647 54.7792 135.344 54.7792C92.0405 54.7792 56.936 90.8708 56.936 135.387C56.936 179.904 92.0405 215.995 135.344 215.995Z" fill="url(#paint2_radial_13_223)"/>
<path d="M118.24 105.966C118.679 102.744 115.546 100.276 109.761 99.5149C104.811 98.8637 93.6856 100.125 84.918 108.941C83.3003 110.552 85.3088 111.861 86.7757 110.853C91.8759 107.48 104.811 104.053 114.223 106.418C118.041 107.426 118.24 105.966 118.24 105.966Z" fill="url(#paint3_linear_13_223)"/>
<path d="M152.447 105.966C152.001 102.744 155.141 100.276 160.92 99.5149C165.876 98.8637 176.995 100.125 185.769 108.941C187.387 110.552 185.378 111.861 183.905 110.853C178.811 107.48 165.876 104.053 156.464 106.418C152.591 107.426 152.447 105.966 152.447 105.966Z" fill="url(#paint4_linear_13_223)"/>
<path d="M135.344 215.995C178.647 215.995 213.751 179.904 213.751 135.387C213.751 90.8708 178.647 54.7792 135.344 54.7792C92.0405 54.7792 56.936 90.8708 56.936 135.387C56.936 179.904 92.0405 215.995 135.344 215.995Z" fill="url(#paint5_radial_13_223)"/>
<path opacity="0.5" d="M135.344 215.995C178.647 215.995 213.751 179.904 213.751 135.387C213.751 90.8708 178.647 54.7792 135.344 54.7792C92.0405 54.7792 56.936 90.8708 56.936 135.387C56.936 179.904 92.0405 215.995 135.344 215.995Z" fill="url(#paint6_radial_13_223)"/>
<path opacity="0.75" d="M135.344 215.995C178.647 215.995 213.751 179.904 213.751 135.387C213.751 90.8708 178.647 54.7792 135.344 54.7792C92.0405 54.7792 56.936 90.8708 56.936 135.387C56.936 179.904 92.0405 215.995 135.344 215.995Z" fill="url(#paint7_radial_13_223)"/>
<path opacity="0.4" d="M119.563 191.914C129.442 191.914 137.448 183.681 137.448 173.529C137.448 163.369 129.442 155.137 119.563 155.137C109.685 155.137 101.679 163.369 101.679 173.529C101.679 183.681 109.685 191.914 119.563 191.914Z" fill="url(#paint8_radial_13_223)"/>
<path d="M136.961 182.893C139.717 182.893 141.959 179.918 141.959 176.243C141.959 172.576 139.717 169.594 136.961 169.594C134.199 169.594 131.957 172.576 131.957 176.243C131.957 179.918 134.199 182.893 136.961 182.893Z" fill="url(#paint9_linear_13_223)"/>
<path d="M206.595 150.503C206.889 153.272 205.128 158.208 202.331 161.436C200.226 163.904 197.286 164.864 194.345 164.309C193.755 164.206 193.214 164.055 192.631 163.801C188.854 162.19 185.276 159.366 181.457 159.976L157.197 163.602C153.962 164.103 150.829 164.96 147.792 166.221L135.049 173.021L135.734 177.758L149.801 180.528C153.084 180.884 156.313 180.781 159.549 180.329L190.081 175.743L198.849 172.822L210.221 163.952C212.819 161.69 212.771 156.699 210.125 154.129L206.595 150.503Z" fill="url(#paint10_linear_13_223)"/>
<path d="M155.333 163.952C152.79 164.459 150.288 165.213 147.84 166.269L135.097 173.069L135.782 177.806L149.849 180.576C152.447 180.829 155.093 180.829 157.636 180.576C156.368 180.329 154.894 176.901 154.305 172.617C153.722 168.237 154.161 164.555 155.333 163.952Z" fill="url(#paint11_linear_13_223)"/>
<path d="M206.595 150.503C206.889 153.272 205.128 158.208 202.331 161.436C200.226 163.904 197.286 164.864 194.345 164.309C193.755 164.206 193.214 164.055 192.631 163.801C188.854 162.19 185.276 159.366 181.457 159.976L157.197 163.602C153.962 164.103 150.829 164.96 147.792 166.221L135.049 173.021L135.734 177.758L149.801 180.528C153.084 180.884 156.313 180.781 159.549 180.329L188.511 175.996L197.039 174.18L210.173 164.007C212.771 161.738 212.723 156.747 210.077 154.177L206.595 150.503Z" fill="url(#paint12_linear_13_223)"/>
<path d="M188.559 175.996C204.881 173.577 221.004 169.347 217.521 147.281C215.026 131.261 191.308 129.794 189.985 141.029C191.699 139.116 194.194 135.236 196.01 135.188C204.49 134.887 207.088 144.909 207.232 150.304C207.527 163.801 196.648 174.783 188.559 175.996Z" fill="url(#paint13_linear_13_223)"/>
<path d="M203.798 143.147C206.053 143.901 206.643 147.582 206.595 150.455C206.595 150.455 207.232 152.113 206.794 152.82L207.136 152.161C207.136 152.113 207.184 150.304 207.184 150.249C207.033 144.861 204.339 134.736 195.963 135.134C188.312 135.538 188.902 146.924 191.013 150.098L192.185 152.065L201.255 150.352C200.076 144.203 201.988 142.544 203.798 143.147Z" fill="url(#paint14_linear_13_223)"/>
<path d="M189.738 145.313C190.129 148.487 191.404 151.51 192.727 151.311C194.05 151.106 194.592 148.035 194.345 146.218L205.758 147.98C206.005 149.646 205.518 152.47 204.291 152.669L192.871 152.47C190.225 152.415 189.738 146.725 189.738 145.313Z" fill="url(#paint15_linear_13_223)"/>
<path d="M137.057 176.044C135.536 187.835 126.274 190.406 128.139 187.026C130.586 182.44 131.176 179.417 131.717 175.338C132.252 171.26 132.451 168.189 131.272 163.095C130.346 159.318 138.579 164.254 137.057 176.044Z" fill="#643800"/>
<path d="M131.224 163.095C132.451 168.189 132.204 171.26 131.669 175.338C131.128 179.417 130.538 182.44 128.091 187.026C127.453 188.239 128.139 188.692 129.414 188.287C129.366 188.287 128.139 187.938 129.263 186.375C130.984 184.058 133.63 180.63 134.26 175.743C134.898 170.807 133.232 166.824 132.156 164.103C131.518 162.293 132.794 162.293 132.794 162.293C131.717 161.532 130.929 161.786 131.224 163.095Z" fill="url(#paint16_linear_13_223)"/>
<path opacity="0.75" d="M206.595 150.503C206.889 153.272 205.128 158.208 202.331 161.436C200.226 163.904 197.286 164.864 194.345 164.309C193.755 164.206 193.214 164.055 192.631 163.801C188.854 162.19 185.276 159.366 181.457 159.976L157.197 163.602C153.962 164.103 150.829 164.96 147.792 166.221L135.049 173.021L135.734 177.758L149.801 180.528C153.084 180.884 156.313 180.781 159.549 180.329L188.511 175.996L197.039 174.18L210.173 164.007C212.771 161.738 212.723 156.747 210.077 154.177L206.595 150.503Z" fill="url(#paint17_radial_13_223)"/>
<path opacity="0.75" d="M188.559 175.996C204.881 173.577 221.004 169.347 217.521 147.281C215.026 131.261 191.308 129.794 189.985 141.029C191.699 139.116 194.194 135.236 196.01 135.188C204.49 134.887 207.088 144.909 207.232 150.304C207.527 163.801 196.648 174.783 188.559 175.996Z" fill="url(#paint18_radial_13_223)"/>
<path d="M99.91 69.49C100.643 69.1404 100.698 68.0779 99.958 67.6803L92.7602 63.8004L49.6353 40.7743C48.751 40.3219 45.2207 38.711 41.2516 42.1385C37.0358 45.9156 38.016 48.7879 38.3108 49.6927L60.7062 109.29C61.1997 110.654 63.0574 110.6 63.551 109.242C69.0419 93.2221 91.2384 73.6236 99.91 69.49Z" fill="url(#paint19_linear_13_223)"/>
<path d="M92.8083 63.8003L83.89 59.0635C80.6544 57.5485 53.5017 78.662 54.1872 91.7619L59.3833 105.561C53.1589 89.1364 88.4417 61.4833 92.8083 63.8003Z" fill="url(#paint20_linear_13_223)"/>
<path d="M74.8206 54.2787L72.8121 53.1682L65.9022 49.4939C63.0094 49.2403 46.8384 61.9837 46.2009 70.6005L50.5127 81.9867C49.5325 70.0452 71.8798 52.6678 74.8206 54.2787Z" fill="url(#paint21_linear_13_223)"/>
<path d="M50.1701 41.124C47.6269 42.0837 41.005 47.2729 39.1472 51.8109L43.651 63.8483C40.909 56.4929 55.2223 45.4083 58.259 45.4083L50.1701 41.124Z" fill="url(#paint22_linear_13_223)"/>
<path opacity="0.75" d="M99.91 69.49C100.643 69.1404 100.698 68.0779 99.958 67.6803L92.7602 63.8004L49.6353 40.7743C48.751 40.3219 45.2207 38.711 41.2516 42.1385C37.0358 45.9156 38.016 48.7879 38.3108 49.6927L60.7062 109.29C61.1997 110.654 63.0574 110.6 63.551 109.242C69.0419 93.2221 91.2384 73.6236 99.91 69.49Z" fill="url(#paint23_radial_13_223)"/>
<path opacity="0.75" d="M99.91 69.49C100.643 69.1404 100.698 68.0779 99.958 67.6803L92.7602 63.8004L49.6353 40.7743C48.751 40.3219 45.2207 38.711 41.2516 42.1385C37.0358 45.9156 38.016 48.7879 38.3108 49.6927L60.7062 109.29C61.1997 110.654 63.0574 110.6 63.551 109.242C69.0419 93.2221 91.2384 73.6236 99.91 69.49Z" fill="url(#paint24_radial_13_223)"/>
<path opacity="0.75" d="M99.91 69.49C100.643 69.1404 100.698 68.0779 99.958 67.6803L92.7602 63.8004L49.6353 40.7743C48.751 40.3219 45.2207 38.711 41.2516 42.1385C37.0358 45.9156 38.016 48.7879 38.3108 49.6927L60.7062 109.29C61.1997 110.654 63.0574 110.6 63.551 109.242C69.0419 93.2221 91.2384 73.6236 99.91 69.49Z" fill="url(#paint25_radial_13_223)"/>
<path d="M114.12 122.39C108.684 118.915 101.679 119.319 96.5785 123.247C93.9805 125.262 91.4372 128.333 89.9154 133.118C89.6686 133.927 89.4767 134.784 89.4219 135.641C89.3259 137.355 90.505 138.918 92.3627 137.101C106.868 123.041 117.013 137.505 117.013 137.505C118.974 138.966 120.982 135.943 120.592 133.118C120.496 132.316 120.393 131.459 120.153 130.705C119.022 126.62 116.623 124.049 114.12 122.39Z" fill="url(#paint26_radial_13_223)"/>
<path d="M120.153 130.705C119.611 128.992 118.926 127.579 118.192 126.373C117.013 124.659 115.594 123.398 114.121 122.438C108.684 118.963 101.679 119.367 96.5785 123.295C93.9805 125.31 91.4373 128.388 89.9154 133.173C89.7646 133.626 89.6687 134.126 89.5727 134.633C89.5727 134.633 89.5727 134.633 89.5727 134.681C95.941 124.454 105.154 123.754 105.154 123.754C105.154 123.754 114.271 122.945 120.448 132.117C120.345 131.61 120.297 131.158 120.153 130.705Z" fill="url(#paint27_linear_13_223)"/>
<path d="M156.56 122.39C162.003 118.915 169.009 119.319 174.102 123.247C176.7 125.262 179.25 128.333 180.772 133.118C181.012 133.927 181.21 134.784 181.258 135.641C181.354 137.355 180.182 138.918 178.318 137.101C163.812 123.041 153.667 137.505 153.667 137.505C151.706 138.966 149.698 135.943 150.096 133.118C150.192 132.316 150.288 131.459 150.534 130.705C151.611 126.62 154.01 124.049 156.56 122.39Z" fill="url(#paint28_radial_13_223)"/>
<path d="M150.486 130.705C151.021 128.992 151.713 127.579 152.447 126.373C153.619 124.659 155.045 123.398 156.512 122.438C161.955 118.963 168.961 119.367 174.054 123.295C176.652 125.31 179.202 128.388 180.724 133.173C180.868 133.626 180.964 134.126 181.067 134.633C181.067 134.633 181.067 134.633 181.067 134.681C174.691 124.454 165.478 123.754 165.478 123.754C165.478 123.754 156.368 122.945 150.192 132.117C150.288 131.61 150.384 131.11 150.486 130.705Z" fill="url(#paint29_linear_13_223)"/>
<path d="M153.667 180.726C152.447 180.377 151.172 177.1 150.582 173.069C150.041 169.244 150.384 165.92 151.316 165.015C150.144 165.364 148.965 165.817 147.84 166.269L147.69 166.324C146.956 167.428 146.565 170.197 147.004 173.529C147.45 176.75 148.622 179.417 149.602 180.48L149.849 180.528C151.124 180.678 152.399 180.726 153.667 180.726Z" fill="url(#paint30_linear_13_223)"/>
<g opacity="0.25">
<path opacity="0.25" d="M73.0075 113.878C75.5558 121.435 69.136 123.4 71.2433 128.287L78.3979 126.372C76.2908 121.485 81.8773 119.622 79.623 111.813L73.0075 113.878Z" fill="url(#paint31_radial_13_223)"/>
<path opacity="0.25" d="M194.098 89.4441C184.297 95.1371 181.798 83.3986 175.182 86.0184L177.24 96.1445C183.807 93.5752 186.6 104.558 196.401 98.8651L194.098 89.4441Z" fill="url(#paint32_radial_13_223)"/>
<path opacity="0.25" d="M114.416 77.7553C115.526 77.7553 116.426 76.8307 116.426 75.6899C116.426 74.5491 115.526 73.6242 114.416 73.6242C113.307 73.6242 112.407 74.5491 112.407 75.6899C112.407 76.8307 113.307 77.7553 114.416 77.7553Z" fill="url(#paint33_radial_13_223)"/>
<path opacity="0.25" d="M165.969 76.8492C167.079 76.8492 167.979 75.9245 167.979 74.7837C167.979 73.643 167.079 72.718 165.969 72.718C164.86 72.718 163.96 73.643 163.96 74.7837C163.96 75.9245 164.86 76.8492 165.969 76.8492Z" fill="url(#paint34_radial_13_223)"/>
<path opacity="0.25" d="M202.233 126.422C203.342 126.422 204.242 125.497 204.242 124.357C204.242 123.216 203.342 122.291 202.233 122.291C201.123 122.291 200.224 123.216 200.224 124.357C200.224 125.497 201.123 126.422 202.233 126.422Z" fill="url(#paint35_radial_13_223)"/>
<path opacity="0.25" d="M76.4866 156.248C77.5962 156.248 78.4959 155.323 78.4959 154.182C78.4959 153.041 77.5962 152.116 76.4866 152.116C75.377 152.116 74.4775 153.041 74.4775 154.182C74.4775 155.323 75.377 156.248 76.4866 156.248Z" fill="url(#paint36_radial_13_223)"/>
<path opacity="0.25" d="M171.997 198.818C173.106 198.818 174.006 197.894 174.006 196.753C174.006 195.612 173.106 194.687 171.997 194.687C170.887 194.687 169.987 195.612 169.987 196.753C169.987 197.894 170.887 198.818 171.997 198.818Z" fill="url(#paint37_radial_13_223)"/>
<path opacity="0.25" d="M165.871 148.539C166.981 148.539 167.881 147.614 167.881 146.474C167.881 145.333 166.981 144.408 165.871 144.408C164.762 144.408 163.862 145.333 163.862 146.474C163.862 147.614 164.762 148.539 165.871 148.539Z" fill="url(#paint38_radial_13_223)"/>
<path opacity="0.25" d="M145.829 78.8136C145.633 75.5389 145.339 72.1131 144.946 68.5361C132.597 76.4961 127.893 86.1692 127.893 86.1692L131.568 94.3306C135.44 86.7735 141.859 81.5342 145.829 78.8136Z" fill="url(#paint39_radial_13_223)"/>
</g>
<path d="M71.9279 109.441C74.478 117.002 68.0617 118.963 70.1661 123.85L77.3228 121.938C75.2114 117.05 80.7983 115.186 78.543 107.378L71.9279 109.441Z" fill="url(#paint40_linear_13_223)"/>
<path d="M194.098 85.3593C184.295 91.0559 181.8 79.3132 175.185 81.9387L177.242 92.0635C183.809 89.4929 186.599 100.475 196.401 94.785L194.098 85.3593Z" fill="url(#paint41_linear_13_223)"/>
<path d="M197.724 73.8223C198.835 73.8223 199.733 72.8969 199.733 71.759C199.733 70.621 198.835 69.6956 197.724 69.6956C196.614 69.6956 195.716 70.621 195.716 71.759C195.716 72.8969 196.614 73.8223 197.724 73.8223Z" fill="url(#paint42_linear_13_223)"/>
<path d="M114.415 74.7341C115.526 74.7341 116.424 73.8087 116.424 72.6639C116.424 71.526 115.526 70.6006 114.415 70.6006C113.305 70.6006 112.407 71.526 112.407 72.6639C112.407 73.8087 113.305 74.7341 114.415 74.7341Z" fill="url(#paint43_linear_13_223)"/>
<path d="M165.972 73.8223C167.082 73.8223 167.98 72.8969 167.98 71.759C167.98 70.621 167.082 69.6956 165.972 69.6956C164.861 69.6956 163.963 70.621 163.963 71.759C163.963 72.8969 164.861 73.8223 165.972 73.8223Z" fill="url(#paint44_linear_13_223)"/>
<path d="M202.235 123.398C203.345 123.398 204.243 122.472 204.243 121.335C204.243 120.19 203.345 119.264 202.235 119.264C201.124 119.264 200.226 120.19 200.226 121.335C200.226 122.472 201.124 123.398 202.235 123.398Z" fill="url(#paint45_linear_13_223)"/>
<path d="M76.0477 153.875C77.1582 153.875 78.0562 152.957 78.0562 151.812C78.0562 150.674 77.1582 149.749 76.0477 149.749C74.9372 149.749 74.0392 150.674 74.0392 151.812C74.0392 152.957 74.9372 153.875 76.0477 153.875Z" fill="url(#paint46_linear_13_223)"/>
<path d="M165.629 145.718C166.74 145.718 167.638 144.792 167.638 143.654C167.638 142.51 166.74 141.584 165.629 141.584C164.519 141.584 163.621 142.51 163.621 143.654C163.621 144.792 164.519 145.718 165.629 145.718Z" fill="url(#paint47_linear_13_223)"/>
<path d="M60.1167 183.4C61.2272 183.4 62.132 182.474 62.132 181.336C62.132 180.192 61.2272 179.266 60.1167 179.266C59.013 179.266 58.1082 180.192 58.1082 181.336C58.1082 182.474 59.013 183.4 60.1167 183.4Z" fill="url(#paint48_linear_13_223)"/>
<path d="M146.86 71.6082C146.661 68.3315 146.366 64.904 145.976 61.3325C133.63 69.2912 128.92 78.9636 128.92 78.9636L132.602 87.1279C136.468 79.6148 142.891 74.3296 146.86 71.6082Z" fill="url(#paint49_linear_13_223)"/>
<path d="M108.143 168.737C109.274 191.105 91.4853 196.904 86.1452 198.159C88.9352 200.476 91.876 202.594 95.0088 204.506C104.715 200.325 120.688 189.796 115.3 166.571C112.654 167.277 110.254 167.983 108.143 168.737Z" fill="url(#paint50_radial_13_223)"/>
<path d="M103.05 164.912C104.373 191.208 79.5233 194.635 79.5233 194.635L83.0056 203.046C83.0056 203.046 117.747 195.437 110.199 162.794C107.553 163.452 105.154 164.158 103.05 164.912Z" fill="url(#paint51_linear_13_223)"/>
</g>
<defs>
<linearGradient id="paint0_linear_13_223" x1="128" y1="0" x2="128" y2="256" gradientUnits="userSpaceOnUse">
<stop stop-color="#73DBCE"/>
<stop offset="1" stop-color="#258277"/>
<stop offset="1" stop-color="#227081"/>
<stop offset="1" stop-color="#1E7D7D"/>
</linearGradient>
<radialGradient id="paint1_radial_13_223" cx="0" cy="0" r="1" gradientUnits="userSpaceOnUse" gradientTransform="translate(119.897 102.712) scale(94.5887 97.2429)">
<stop stop-color="#FFE030"/>
<stop offset="1" stop-color="#FFB92E"/>
</radialGradient>
<radialGradient id="paint2_radial_13_223" cx="0" cy="0" r="1" gradientUnits="userSpaceOnUse" gradientTransform="translate(119.897 102.712) scale(74.4171 76.5052)">
<stop stop-color="#FFEA5F"/>
<stop offset="1" stop-color="#FFBC47" stop-opacity="0"/>
</radialGradient>
<linearGradient id="paint3_linear_13_223" x1="101.128" y1="109.063" x2="102.288" y2="100.653" gradientUnits="userSpaceOnUse">
<stop offset="0.0013" stop-color="#3C2200"/>
<stop offset="1" stop-color="#7A4400"/>
</linearGradient>
<linearGradient id="paint4_linear_13_223" x1="169.53" y1="109.061" x2="168.37" y2="100.651" gradientUnits="userSpaceOnUse">
<stop offset="0.0013" stop-color="#3C2200"/>
<stop offset="1" stop-color="#7A4400"/>
</linearGradient>
<radialGradient id="paint5_radial_13_223" cx="0" cy="0" r="1" gradientUnits="userSpaceOnUse" gradientTransform="translate(76.4476 83.2329) rotate(-46.3272) scale(61.0271 25.0494)">
<stop stop-color="#EB672A" stop-opacity="0.5"/>
<stop offset="0.3025" stop-color="#E36521" stop-opacity="0.3422"/>
<stop offset="0.7868" stop-color="#CC600A" stop-opacity="0.0897045"/>
<stop offset="0.9589" stop-color="#C25E00" stop-opacity="0"/>
</radialGradient>
<radialGradient id="paint6_radial_13_223" cx="0" cy="0" r="1" gradientUnits="userSpaceOnUse" gradientTransform="translate(92.5743 155.433) rotate(-2.8479) scale(32.9823 26.8259)">
<stop stop-color="#FF4C00"/>
<stop offset="0.1995" stop-color="#F94C0E" stop-opacity="0.8005"/>
<stop offset="0.7145" stop-color="#EC4A2E" stop-opacity="0.2855"/>
<stop offset="1" stop-color="#E74A3A" stop-opacity="0"/>
</radialGradient>
<radialGradient id="paint7_radial_13_223" cx="0" cy="0" r="1" gradientUnits="userSpaceOnUse" gradientTransform="translate(177.316 180.332) rotate(-0.412858) scale(52.4376 12.2373)">
<stop stop-color="#7A4400" stop-opacity="0.5"/>
<stop offset="0.5833" stop-color="#894D00" stop-opacity="0.2069"/>
<stop offset="0.995" stop-color="#975500" stop-opacity="0"/>
</radialGradient>
<radialGradient id="paint8_radial_13_223" cx="0" cy="0" r="1" gradientUnits="userSpaceOnUse" gradientTransform="translate(125.241 177.014) rotate(4.68119) scale(18.5194 13.457)">
<stop stop-color="white" stop-opacity="0.75"/>
<stop offset="1" stop-color="white" stop-opacity="0"/>
</radialGradient>
<linearGradient id="paint9_linear_13_223" x1="131.932" y1="176.23" x2="141.949" y2="176.23" gradientUnits="userSpaceOnUse">
<stop offset="0.0013" stop-color="#3C2200"/>
<stop offset="1" stop-color="#512D00"/>
</linearGradient>
<linearGradient id="paint10_linear_13_223" x1="173.599" y1="165.927" x2="177.243" y2="190.253" gradientUnits="userSpaceOnUse">
<stop stop-color="#FF40BF"/>
<stop offset="0.8932" stop-color="#7000A3"/>
</linearGradient>
<linearGradient id="paint11_linear_13_223" x1="144.492" y1="163.579" x2="146.99" y2="180.257" gradientUnits="userSpaceOnUse">
<stop offset="0.2544" stop-color="#D1F2FF"/>
<stop offset="1" stop-color="#17BBFE"/>
</linearGradient>
<linearGradient id="paint12_linear_13_223" x1="179.571" y1="167.071" x2="217.189" y2="151.365" gradientUnits="userSpaceOnUse">
<stop stop-color="#7000A3" stop-opacity="0"/>
<stop offset="0.2242" stop-color="#530078" stop-opacity="0.2242"/>
<stop offset="0.5925" stop-color="#260038" stop-opacity="0.5925"/>
<stop offset="0.8613" stop-color="#0B000F" stop-opacity="0.8613"/>
<stop offset="1"/>
</linearGradient>
<linearGradient id="paint13_linear_13_223" x1="211.664" y1="192.688" x2="199.752" y2="152.014" gradientUnits="userSpaceOnUse">
<stop/>
<stop offset="0.1488" stop-color="#27002D"/>
<stop offset="0.4631" stop-color="#760086"/>
<stop offset="0.7193" stop-color="#B000C7"/>
<stop offset="0.9045" stop-color="#D300F0"/>
<stop offset="1" stop-color="#E100FF"/>
</linearGradient>
<linearGradient id="paint14_linear_13_223" x1="200.226" y1="129.111" x2="196.305" y2="166.622" gradientUnits="userSpaceOnUse">
<stop/>
<stop offset="0.1488" stop-color="#27002D"/>
<stop offset="0.4631" stop-color="#760086"/>
<stop offset="0.7193" stop-color="#B000C7"/>
<stop offset="0.9045" stop-color="#D300F0"/>
<stop offset="1" stop-color="#E100FF"/>
</linearGradient>
<linearGradient id="paint15_linear_13_223" x1="199.378" y1="158.764" x2="197.731" y2="147.765" gradientUnits="userSpaceOnUse">
<stop stop-color="#7000A3"/>
<stop offset="0.4469" stop-color="#A900D2"/>
<stop offset="0.8117" stop-color="#D200F2"/>
<stop offset="1" stop-color="#E100FF"/>
</linearGradient>
<linearGradient id="paint16_linear_13_223" x1="125.635" y1="174.508" x2="134.018" y2="175.597" gradientUnits="userSpaceOnUse">
<stop offset="0.0013" stop-color="#3C2200"/>
<stop offset="1" stop-color="#512D00"/>
</linearGradient>
<radialGradient id="paint17_radial_13_223" cx="0" cy="0" r="1" gradientUnits="userSpaceOnUse" gradientTransform="translate(167.96 167.332) rotate(-8.51609) scale(28.3728 3.24904)">
<stop stop-color="white" stop-opacity="0.5"/>
<stop offset="1" stop-color="white" stop-opacity="0"/>
</radialGradient>
<radialGradient id="paint18_radial_13_223" cx="0" cy="0" r="1" gradientUnits="userSpaceOnUse" gradientTransform="translate(212.669 144.835) rotate(78.0431) scale(14.6514 3.19709)">
<stop stop-color="white" stop-opacity="0.5"/>
<stop offset="1" stop-color="white" stop-opacity="0"/>
</radialGradient>
<linearGradient id="paint19_linear_13_223" x1="88.1095" y1="50.1295" x2="41.8637" y2="81.6891" gradientUnits="userSpaceOnUse">
<stop offset="0.2544" stop-color="#D1F2FF"/>
<stop offset="1" stop-color="#17BBFE"/>
</linearGradient>
<linearGradient id="paint20_linear_13_223" x1="92.0467" y1="63.0196" x2="51.4675" y2="96.0189" gradientUnits="userSpaceOnUse">
<stop stop-color="#FF40BF"/>
<stop offset="0.7456" stop-color="#7000A3"/>
</linearGradient>
<linearGradient id="paint21_linear_13_223" x1="72.8706" y1="52.0033" x2="44.6423" y2="74.9586" gradientUnits="userSpaceOnUse">
<stop stop-color="#FF40BF"/>
<stop offset="0.7456" stop-color="#7000A3"/>
</linearGradient>
<linearGradient id="paint22_linear_13_223" x1="56.6182" y1="43.5601" x2="38.8169" y2="58.0362" gradientUnits="userSpaceOnUse">
<stop stop-color="#FF40BF"/>
<stop offset="0.7456" stop-color="#7000A3"/>
</linearGradient>
<radialGradient id="paint23_radial_13_223" cx="0" cy="0" r="1" gradientUnits="userSpaceOnUse" gradientTransform="translate(53.4974 74.2355) rotate(65.8986) scale(33.293 8.0513)">
<stop stop-color="#440063" stop-opacity="0.75"/>
<stop offset="1" stop-color="#420061" stop-opacity="0"/>
</radialGradient>
<radialGradient id="paint24_radial_13_223" cx="0" cy="0" r="1" gradientUnits="userSpaceOnUse" gradientTransform="translate(67.7497 59.0131) rotate(31.9089) scale(32.7846 8.1771)">
<stop stop-color="white" stop-opacity="0.5"/>
<stop offset="1" stop-color="white" stop-opacity="0"/>
</radialGradient>
<radialGradient id="paint25_radial_13_223" cx="0" cy="0" r="1" gradientUnits="userSpaceOnUse" gradientTransform="translate(78.2767 102.398) rotate(30.8944) scale(40.4384 41.7282)">
<stop stop-color="#440063" stop-opacity="0.75"/>
<stop offset="1" stop-color="#420061" stop-opacity="0"/>
</radialGradient>
<radialGradient id="paint26_radial_13_223" cx="0" cy="0" r="1" gradientUnits="userSpaceOnUse" gradientTransform="translate(105.189 129.512) rotate(175.348) scale(12.0987 8.81658)">
<stop offset="0.0013" stop-color="#7A4400"/>
<stop offset="1" stop-color="#643800"/>
</radialGradient>
<linearGradient id="paint27_linear_13_223" x1="106.366" y1="113.861" x2="105.352" y2="127.393" gradientUnits="userSpaceOnUse">
<stop offset="0.0013" stop-color="#3C2200"/>
<stop offset="1" stop-color="#512D00"/>
</linearGradient>
<radialGradient id="paint28_radial_13_223" cx="0" cy="0" r="1" gradientUnits="userSpaceOnUse" gradientTransform="translate(165.45 129.512) rotate(4.65201) scale(12.0987 8.81658)">
<stop offset="0.0013" stop-color="#7A4400"/>
<stop offset="1" stop-color="#643800"/>
</radialGradient>
<linearGradient id="paint29_linear_13_223" x1="164.275" y1="113.861" x2="165.29" y2="127.393" gradientUnits="userSpaceOnUse">
<stop offset="0.0013" stop-color="#3C2200"/>
<stop offset="1" stop-color="#512D00"/>
</linearGradient>
<linearGradient id="paint30_linear_13_223" x1="149.307" y1="169.129" x2="151.365" y2="184.427" gradientUnits="userSpaceOnUse">
<stop stop-color="#FF40BF"/>
<stop offset="0.8932" stop-color="#7000A3"/>
</linearGradient>
<radialGradient id="paint31_radial_13_223" cx="0" cy="0" r="1" gradientUnits="userSpaceOnUse" gradientTransform="translate(97.0665 82.7061) scale(176.52 181.473)">
<stop stop-color="#7A4400" stop-opacity="0.5"/>
<stop offset="0.5833" stop-color="#894D00" stop-opacity="0.2069"/>
<stop offset="0.995" stop-color="#975500" stop-opacity="0"/>
</radialGradient>
<radialGradient id="paint32_radial_13_223" cx="0" cy="0" r="1" gradientUnits="userSpaceOnUse" gradientTransform="translate(84.5488 65.7491) rotate(0.0431712) scale(240.173 246.748)">
<stop stop-color="#7A4400" stop-opacity="0.5"/>
<stop offset="0.5833" stop-color="#894D00" stop-opacity="0.2069"/>
<stop offset="0.995" stop-color="#975500" stop-opacity="0"/>
</radialGradient>
<radialGradient id="paint33_radial_13_223" cx="0" cy="0" r="1" gradientUnits="userSpaceOnUse" gradientTransform="translate(105.397 75.0858) scale(176.52 181.473)">
<stop stop-color="#7A4400" stop-opacity="0.5"/>
<stop offset="0.5833" stop-color="#894D00" stop-opacity="0.2069"/>
<stop offset="0.995" stop-color="#975500" stop-opacity="0"/>
</radialGradient>
<radialGradient id="paint34_radial_13_223" cx="0" cy="0" r="1" gradientUnits="userSpaceOnUse" gradientTransform="translate(105.397 75.0863) scale(176.52 181.473)">
<stop stop-color="#7A4400" stop-opacity="0.5"/>
<stop offset="0.5833" stop-color="#894D00" stop-opacity="0.2069"/>
<stop offset="0.995" stop-color="#975500" stop-opacity="0"/>
</radialGradient>
<radialGradient id="paint35_radial_13_223" cx="0" cy="0" r="1" gradientUnits="userSpaceOnUse" gradientTransform="translate(105.397 75.0855) scale(176.521 181.473)">
<stop stop-color="#7A4400" stop-opacity="0.5"/>
<stop offset="0.5833" stop-color="#894D00" stop-opacity="0.2069"/>
<stop offset="0.995" stop-color="#975500" stop-opacity="0"/>
</radialGradient>
<radialGradient id="paint36_radial_13_223" cx="0" cy="0" r="1" gradientUnits="userSpaceOnUse" gradientTransform="translate(86.2366 77.8571) scale(176.52 181.473)">
<stop stop-color="#7A4400" stop-opacity="0.5"/>
<stop offset="0.5833" stop-color="#894D00" stop-opacity="0.2069"/>
<stop offset="0.995" stop-color="#975500" stop-opacity="0"/>
</radialGradient>
<radialGradient id="paint37_radial_13_223" cx="0" cy="0" r="1" gradientUnits="userSpaceOnUse" gradientTransform="translate(105.397 75.0863) scale(176.521 181.473)">
<stop stop-color="#7A4400" stop-opacity="0.5"/>
<stop offset="0.5833" stop-color="#894D00" stop-opacity="0.2069"/>
<stop offset="0.995" stop-color="#975500" stop-opacity="0"/>
</radialGradient>
<radialGradient id="paint38_radial_13_223" cx="0" cy="0" r="1" gradientUnits="userSpaceOnUse" gradientTransform="translate(111.768 66.8994) scale(176.52 181.473)">
<stop stop-color="#7A4400" stop-opacity="0.5"/>
<stop offset="0.5833" stop-color="#894D00" stop-opacity="0.2069"/>
<stop offset="0.995" stop-color="#975500" stop-opacity="0"/>
</radialGradient>
<radialGradient id="paint39_radial_13_223" cx="0" cy="0" r="1" gradientUnits="userSpaceOnUse" gradientTransform="translate(94.5818 101.903) rotate(-29.2393) scale(245.912 249.358)">
<stop stop-color="#7A4400" stop-opacity="0.5"/>
<stop offset="0.5833" stop-color="#894D00" stop-opacity="0.2069"/>
<stop offset="0.995" stop-color="#975500" stop-opacity="0"/>
</radialGradient>
<linearGradient id="paint40_linear_13_223" x1="77.1046" y1="120.299" x2="71.2288" y2="110.767" gradientUnits="userSpaceOnUse">
<stop stop-color="#FF9214"/>
<stop offset="1" stop-color="#FF4E0D"/>
</linearGradient>
<linearGradient id="paint41_linear_13_223" x1="208.374" y1="93.739" x2="175.567" y2="87.7407" gradientUnits="userSpaceOnUse">
<stop stop-color="#80DAFE"/>
<stop offset="1" stop-color="#008EE6"/>
</linearGradient>
<linearGradient id="paint42_linear_13_223" x1="185.922" y1="69.4505" x2="209.223" y2="73.9152" gradientUnits="userSpaceOnUse">
<stop stop-color="#FFCB4B"/>
<stop offset="1" stop-color="#E81CA2"/>
</linearGradient>
<linearGradient id="paint43_linear_13_223" x1="126.146" y1="72.4068" x2="101.984" y2="72.9844" gradientUnits="userSpaceOnUse">
<stop stop-color="#FBE07A"/>
<stop offset="1" stop-color="#E81CA2"/>
</linearGradient>
<linearGradient id="paint44_linear_13_223" x1="165.172" y1="62.1809" x2="166.034" y2="72.2528" gradientUnits="userSpaceOnUse">
<stop stop-color="#80DAFE"/>
<stop offset="1" stop-color="#008EE6"/>
</linearGradient>
<linearGradient id="paint45_linear_13_223" x1="205.582" y1="125.094" x2="197.21" y2="116.257" gradientUnits="userSpaceOnUse">
<stop stop-color="#FFCB4B"/>
<stop offset="1" stop-color="#E81CA2"/>
</linearGradient>
<linearGradient id="paint46_linear_13_223" x1="71.9688" y1="151.107" x2="77.6904" y2="152.154" gradientUnits="userSpaceOnUse">
<stop offset="0.2544" stop-color="#9F00E8"/>
<stop offset="1" stop-color="#7000A3"/>
</linearGradient>
<linearGradient id="paint47_linear_13_223" x1="159.205" y1="152.314" x2="170.535" y2="137.838" gradientUnits="userSpaceOnUse">
<stop stop-color="#80DAFE"/>
<stop offset="1" stop-color="#008EE6"/>
</linearGradient>
<linearGradient id="paint48_linear_13_223" x1="57.3045" y1="180.415" x2="70.4803" y2="185.003" gradientUnits="userSpaceOnUse">
<stop stop-color="#FF9214"/>
<stop offset="1" stop-color="#FF4E0D"/>
</linearGradient>
<linearGradient id="paint49_linear_13_223" x1="176.055" y1="47.9662" x2="122.965" y2="84.058" gradientUnits="userSpaceOnUse">
<stop stop-color="#FBE07A"/>
<stop offset="1" stop-color="#E81CA2"/>
</linearGradient>
<radialGradient id="paint50_radial_13_223" cx="0" cy="0" r="1" gradientUnits="userSpaceOnUse" gradientTransform="translate(53.0224 163.088) scale(83.3674 85.7067)">
<stop stop-color="#7A4400" stop-opacity="0.5"/>
<stop offset="0.5833" stop-color="#894D00" stop-opacity="0.2069"/>
<stop offset="0.995" stop-color="#975500" stop-opacity="0"/>
</radialGradient>
<linearGradient id="paint51_linear_13_223" x1="104.107" y1="148.87" x2="81.7053" y2="237.109" gradientUnits="userSpaceOnUse">
<stop stop-color="#F78174"/>
<stop offset="0.3893" stop-color="#8800C7"/>
<stop offset="1" stop-color="#3640FF"/>
</linearGradient>
<clipPath id="clip0_13_223">
<rect width="256" height="256" fill="white"/>
</clipPath>
</defs>
</svg>
