<svg width="256" height="256" viewBox="0 0 256 256" fill="none" xmlns="http://www.w3.org/2000/svg">
<g clip-path="url(#clip0_10_3)">
<path d="M196 0H60C26.8629 0 0 26.8629 0 60V196C0 229.137 26.8629 256 60 256H196C229.137 256 256 229.137 256 196V60C256 26.8629 229.137 0 196 0Z" fill="url(#paint0_linear_10_3)"/>
<path d="M205.325 30.3606L205.943 30.9849C205.68 31.0864 205.442 31.2424 205.244 31.4428C205.046 31.6431 204.892 31.8832 204.794 32.1471L204.17 31.5228L203.572 30.9251L202.051 29.4043C201.898 29.2476 201.813 29.0364 201.816 28.8172C201.818 28.598 201.908 28.3887 202.064 28.2355C202.221 28.0823 202.432 27.9976 202.652 28.0001C202.871 28.0025 203.08 28.092 203.233 28.2488L204.754 29.7696L205.325 30.3606Z" fill="#96B945"/>
<path d="M211.229 37.3936C211.153 37.4695 211.063 37.5297 210.964 37.5708C210.865 37.6118 210.759 37.633 210.651 37.633C210.544 37.633 210.438 37.6118 210.339 37.5708C210.24 37.5297 210.15 37.4695 210.074 37.3936L208.546 35.8727L207.982 35.3082L207.318 34.6441C207.581 34.5442 207.82 34.3895 208.019 34.1903C208.219 33.9911 208.373 33.7519 208.473 33.4886L209.689 34.7039L211.216 36.2247C211.296 36.2989 211.361 36.3888 211.405 36.4888C211.45 36.5888 211.473 36.6968 211.475 36.8063C211.476 36.9157 211.455 37.0243 211.413 37.1253C211.37 37.2262 211.308 37.3175 211.229 37.3936V37.3936Z" fill="#96B945"/>
<path d="M210.731 115.261L208.506 117.485C208.353 117.639 208.145 117.725 207.929 117.725C207.712 117.725 207.504 117.639 207.351 117.485C207.198 117.332 207.111 117.124 207.111 116.908C207.111 116.691 207.198 116.483 207.351 116.33L208.367 115.314L208.965 114.723L209.582 114.105C209.685 114.366 209.84 114.603 210.037 114.801C210.235 115 210.471 115.156 210.731 115.261V115.261Z" fill="#F16251"/>
<path d="M215.612 110.353L213.381 112.584C213.279 112.322 213.124 112.084 212.927 111.884C212.729 111.684 212.493 111.527 212.232 111.422L212.843 110.811L213.434 110.213L214.45 109.197C214.526 109.121 214.616 109.061 214.715 109.02C214.814 108.979 214.921 108.958 215.028 108.958C215.135 108.958 215.241 108.979 215.341 109.02C215.44 109.061 215.53 109.121 215.606 109.197C215.682 109.273 215.742 109.363 215.783 109.462C215.824 109.561 215.845 109.668 215.845 109.775C215.845 109.882 215.824 109.989 215.783 110.088C215.742 110.187 215.682 110.277 215.606 110.353H215.612Z" fill="#F16251"/>
<path d="M213.999 111.993C213.735 111.505 213.336 111.104 212.85 110.838C212.307 110.545 211.685 110.435 211.076 110.524C210.466 110.613 209.902 110.897 209.466 111.332C209.03 111.768 208.747 112.333 208.658 112.942C208.569 113.552 208.679 114.174 208.971 114.716C209.333 115.384 209.945 115.88 210.673 116.096C211.401 116.312 212.185 116.23 212.853 115.868C213.52 115.506 214.017 114.894 214.233 114.166C214.449 113.438 214.367 112.654 214.005 111.986L213.999 111.993ZM211.482 115.4C211.225 115.402 210.97 115.355 210.731 115.261C210.47 115.156 210.234 114.998 210.036 114.798C209.839 114.598 209.684 114.36 209.582 114.098C209.489 113.862 209.441 113.609 209.443 113.355C209.442 113.086 209.494 112.82 209.596 112.572C209.698 112.324 209.848 112.099 210.038 111.909C210.227 111.719 210.452 111.568 210.7 111.465C210.948 111.362 211.213 111.309 211.482 111.309C211.738 111.307 211.993 111.354 212.232 111.449C212.493 111.554 212.729 111.711 212.927 111.911C213.124 112.111 213.279 112.349 213.381 112.611C213.474 112.847 213.522 113.1 213.52 113.355C213.521 113.623 213.469 113.889 213.367 114.137C213.265 114.385 213.115 114.61 212.926 114.801C212.736 114.991 212.511 115.141 212.263 115.244C212.016 115.347 211.75 115.4 211.482 115.4V115.4Z" fill="white"/>
<path d="M214.623 111.395C214.291 110.869 213.832 110.435 213.287 110.134C212.742 109.833 212.13 109.675 211.508 109.675C210.532 109.675 209.595 110.063 208.904 110.753C208.213 111.442 207.824 112.378 207.822 113.355C207.819 114.049 208.017 114.73 208.393 115.314C208.725 115.84 209.184 116.274 209.729 116.575C210.274 116.876 210.886 117.034 211.508 117.034C212.485 117.034 213.421 116.646 214.112 115.956C214.803 115.267 215.192 114.331 215.194 113.355C215.197 112.66 214.999 111.979 214.623 111.395ZM211.508 115.38C211.251 115.382 210.996 115.335 210.758 115.241C210.497 115.136 210.261 114.978 210.063 114.778C209.865 114.579 209.711 114.34 209.609 114.078C209.515 113.842 209.468 113.589 209.469 113.335C209.468 113.066 209.521 112.8 209.623 112.552C209.725 112.304 209.875 112.079 210.064 111.889C210.254 111.699 210.479 111.548 210.726 111.445C210.974 111.342 211.24 111.289 211.508 111.289C211.765 111.287 212.02 111.334 212.259 111.429C212.519 111.534 212.756 111.691 212.953 111.891C213.151 112.091 213.305 112.329 213.407 112.591C213.501 112.828 213.548 113.08 213.547 113.335C213.551 113.607 213.5 113.877 213.397 114.129C213.294 114.381 213.142 114.61 212.95 114.803C212.757 114.996 212.528 115.148 212.276 115.25C212.024 115.353 211.754 115.404 211.482 115.4L211.508 115.38Z" fill="#F16251"/>
<path d="M83.793 179.885L84.4106 180.503C84.1487 180.605 83.9105 180.759 83.7106 180.957C83.5107 181.155 83.3534 181.391 83.2484 181.652L82.6374 181.041L82.0397 180.443L80.9904 179.42C80.9145 179.344 80.8544 179.254 80.8133 179.155C80.7722 179.056 80.7511 178.95 80.7511 178.843C80.7511 178.626 80.8372 178.418 80.9904 178.265C81.1437 178.112 81.3515 178.025 81.5682 178.025C81.7849 178.025 81.9927 178.112 82.146 178.265L83.1621 179.281L83.7531 179.879L83.793 179.885Z" fill="#83CBAA"/>
<path d="M89.252 186.533C89.177 186.61 89.0872 186.672 88.988 186.714C88.8887 186.756 88.782 186.778 88.6742 186.778C88.5664 186.778 88.4596 186.756 88.3604 186.714C88.2611 186.672 88.1713 186.61 88.0964 186.533L85.865 184.302C86.1269 184.199 86.3651 184.045 86.565 183.847C86.7648 183.65 86.9221 183.413 87.0272 183.153L87.6382 183.764L88.2359 184.355L89.252 185.397C89.4024 185.548 89.4869 185.752 89.4869 185.965C89.4869 186.178 89.4024 186.382 89.252 186.533V186.533Z" fill="#83CBAA"/>
<path d="M85.1212 179.54C84.657 179.545 84.201 179.664 83.793 179.885C83.403 180.099 83.0681 180.4 82.8148 180.765C82.5615 181.131 82.3968 181.55 82.3337 181.99C82.2707 182.43 82.311 182.879 82.4515 183.301C82.592 183.722 82.8288 184.106 83.1432 184.42C83.4575 184.734 83.8408 184.971 84.2626 185.112C84.6843 185.252 85.1331 185.292 85.5731 185.229C86.0132 185.166 86.4325 185.002 86.7979 184.748C87.1632 184.495 87.4646 184.16 87.678 183.77C87.917 183.331 88.0369 182.837 88.0256 182.337C88.0143 181.837 87.8722 181.349 87.6136 180.921C87.355 180.493 86.9888 180.141 86.5515 179.898C86.1142 179.656 85.6211 179.532 85.1212 179.54V179.54ZM85.865 184.301C85.6282 184.395 85.3758 184.442 85.1212 184.441C84.8529 184.442 84.587 184.39 84.3389 184.288C84.0908 184.186 83.8653 184.036 83.6752 183.846C83.4852 183.657 83.3344 183.432 83.2315 183.184C83.1287 182.936 83.0757 182.67 83.0757 182.402C83.0734 182.145 83.1208 181.891 83.2152 181.652C83.3202 181.391 83.4775 181.155 83.6774 180.957C83.8773 180.759 84.1155 180.605 84.3774 180.503C84.6141 180.409 84.8666 180.362 85.1212 180.363C85.3895 180.362 85.6553 180.415 85.9034 180.517C86.1516 180.619 86.3771 180.769 86.5671 180.958C86.7572 181.148 86.9079 181.373 87.0108 181.62C87.1137 181.868 87.1666 182.134 87.1666 182.402C87.169 182.659 87.1216 182.914 87.0272 183.153C86.9221 183.413 86.7648 183.65 86.565 183.847C86.3651 184.045 86.1269 184.199 85.865 184.301V184.301Z" fill="white"/>
<path d="M85.1212 178.716C84.4153 178.706 83.7223 178.905 83.1289 179.287C82.6022 179.619 82.1681 180.078 81.8673 180.623C81.5665 181.168 81.4087 181.78 81.4088 182.402C81.4123 182.886 81.5111 183.365 81.6995 183.811C81.888 184.256 82.1624 184.661 82.5071 185.001C82.8518 185.34 83.2601 185.609 83.7087 185.791C84.1572 185.973 84.6372 186.065 85.1212 186.061C85.827 186.071 86.5201 185.873 87.1135 185.49C87.6402 185.159 88.0743 184.699 88.3751 184.155C88.6759 183.61 88.8337 182.998 88.8336 182.376C88.8301 181.892 88.7313 181.413 88.5429 180.967C88.3544 180.521 88.08 180.117 87.7353 179.777C87.3905 179.437 86.9823 179.169 86.5337 178.987C86.0852 178.805 85.6052 178.713 85.1212 178.716V178.716ZM85.865 184.302C85.6282 184.395 85.3758 184.442 85.1212 184.441C84.8529 184.442 84.5871 184.39 84.3389 184.288C84.0908 184.186 83.8653 184.036 83.6752 183.846C83.4852 183.657 83.3344 183.432 83.2316 183.184C83.1287 182.936 83.0757 182.67 83.0757 182.402C83.0734 182.145 83.1208 181.891 83.2152 181.652C83.3202 181.391 83.4775 181.155 83.6774 180.957C83.8773 180.759 84.1155 180.605 84.3774 180.503C84.6141 180.409 84.8666 180.362 85.1212 180.363C85.3895 180.362 85.6553 180.415 85.9035 180.517C86.1516 180.619 86.3771 180.769 86.5671 180.958C86.7572 181.148 86.9079 181.373 87.0108 181.62C87.1137 181.868 87.1667 182.134 87.1667 182.402C87.169 182.659 87.1216 182.914 87.0272 183.153C86.9222 183.413 86.7649 183.65 86.565 183.847C86.3651 184.045 86.1269 184.199 85.865 184.302V184.302Z" fill="#83CBAA"/>
<path d="M49.9498 84.4193L49.1396 87.0624L49.9498 89.7056L47.3067 88.8887L44.6702 89.7056L45.4804 87.0624L44.6702 84.4193L47.3067 85.2361L49.9498 84.4193Z" stroke="#83CBAA" stroke-width="2.47" stroke-linecap="round" stroke-linejoin="round"/>
<path d="M179.87 177.288L177.213 178.105L174.557 177.288L175.367 179.945L174.557 182.601L177.213 181.785L179.87 182.601L179.06 179.945L179.87 177.288ZM178.276 180.171L178.628 181.333L177.479 180.974C177.321 180.928 177.153 180.928 176.994 180.974L175.825 181.333L176.184 180.171C176.231 180.015 176.231 179.849 176.184 179.693L175.825 178.53L176.994 178.889C177.153 178.936 177.321 178.936 177.479 178.889L178.628 178.53L178.276 179.693C178.23 179.849 178.23 180.015 178.276 180.171V180.171Z" fill="white"/>
<path d="M179.916 179.932L180.654 177.528C180.696 177.385 180.699 177.233 180.662 177.089C180.625 176.945 180.55 176.813 180.445 176.708C180.339 176.603 180.207 176.529 180.063 176.493C179.918 176.457 179.767 176.461 179.624 176.505L177.233 177.249L174.829 176.505C174.687 176.459 174.536 176.455 174.391 176.491C174.247 176.527 174.116 176.604 174.012 176.711C173.906 176.815 173.831 176.946 173.795 177.09C173.759 177.234 173.763 177.386 173.807 177.528L174.544 179.932L173.807 182.336C173.765 182.478 173.762 182.628 173.798 182.772C173.835 182.915 173.909 183.046 174.014 183.151C174.119 183.256 174.25 183.33 174.393 183.367C174.537 183.403 174.687 183.4 174.829 183.358L177.233 182.615L179.624 183.358C179.703 183.385 179.786 183.398 179.87 183.398C179.998 183.396 180.123 183.365 180.237 183.306C180.35 183.248 180.449 183.164 180.525 183.061C180.601 182.958 180.652 182.839 180.674 182.713C180.696 182.588 180.689 182.458 180.654 182.336L179.916 179.932ZM175.825 181.333L176.184 180.171C176.231 180.015 176.231 179.849 176.184 179.693L175.825 178.53L176.994 178.889C177.152 178.936 177.321 178.936 177.479 178.889L178.628 178.53L178.276 179.693C178.229 179.849 178.229 180.015 178.276 180.171L178.628 181.333L177.479 180.974C177.321 180.928 177.152 180.928 176.994 180.974L175.825 181.333Z" fill="#FEC656"/>
<path d="M206.653 30.0418C206.147 30.0393 205.65 30.1762 205.217 30.4374C204.783 30.6986 204.43 31.0742 204.196 31.5228C203.983 31.9329 203.874 32.3889 203.877 32.851C203.886 33.5815 204.182 34.2791 204.702 34.7925C205.222 35.306 205.923 35.5939 206.653 35.5938C207.159 35.5962 207.655 35.4601 208.088 35.2001C208.521 34.9402 208.875 34.5664 209.111 34.1195C209.324 33.7093 209.433 33.2534 209.429 32.7913C209.422 32.0596 209.127 31.3604 208.607 30.8455C208.087 30.3306 207.385 30.0418 206.653 30.0418V30.0418ZM207.318 34.6441C207.105 34.7252 206.88 34.7679 206.653 34.7703C206.138 34.7601 205.646 34.5502 205.282 34.1848C204.918 33.8194 204.709 33.327 204.701 32.8112C204.7 32.5844 204.741 32.3594 204.82 32.1471C204.978 31.7172 205.282 31.3565 205.679 31.1279C206.075 30.8994 206.54 30.8175 206.991 30.8966C207.442 30.9757 207.851 31.2108 208.146 31.5608C208.441 31.9107 208.604 32.3533 208.606 32.8112C208.606 33.0379 208.565 33.2628 208.486 33.4753C208.387 33.7424 208.231 33.985 208.029 34.1867C207.827 34.3883 207.585 34.5443 207.318 34.6441V34.6441Z" fill="white"/>
<path d="M206.653 29.2184C205.981 29.2165 205.321 29.4078 204.754 29.7696C204.282 30.0562 203.885 30.4526 203.599 30.9252C203.243 31.4923 203.054 32.1483 203.054 32.8179C203.054 33.2906 203.147 33.7586 203.328 34.1953C203.509 34.632 203.774 35.0289 204.108 35.3631C204.442 35.6973 204.839 35.9625 205.276 36.1434C205.713 36.3243 206.181 36.4174 206.653 36.4174C207.323 36.4193 207.98 36.2304 208.546 35.8728C209.019 35.5862 209.415 35.1898 209.702 34.7172C210.063 34.1523 210.255 33.4953 210.253 32.8245C210.254 32.3513 210.161 31.8825 209.981 31.445C209.8 31.0075 209.535 30.61 209.201 30.275C208.867 29.9401 208.47 29.6743 208.032 29.493C207.595 29.3117 207.127 29.2184 206.653 29.2184V29.2184ZM207.318 34.6442C207.105 34.7252 206.881 34.7679 206.653 34.7704C206.138 34.7601 205.646 34.5502 205.282 34.1848C204.918 33.8194 204.709 33.327 204.701 32.8112C204.7 32.5845 204.741 32.3595 204.82 32.1471C204.978 31.7173 205.282 31.3566 205.679 31.128C206.075 30.8994 206.54 30.8175 206.991 30.8967C207.442 30.9758 207.851 31.2109 208.146 31.5608C208.441 31.9108 208.604 32.3534 208.606 32.8112C208.606 33.0379 208.565 33.2628 208.486 33.4753C208.387 33.7425 208.231 33.9851 208.029 34.1867C207.827 34.3883 207.585 34.5444 207.318 34.6442V34.6442Z" fill="#96B945"/>
<path d="M35.5586 125.116L33.2475 127.427C33.0913 127.55 32.8959 127.611 32.6978 127.6C32.4996 127.589 32.3122 127.506 32.1707 127.367C32.0291 127.228 31.9431 127.042 31.9286 126.844C31.9141 126.646 31.9721 126.45 32.0919 126.291L33.1213 125.262L33.7323 124.651L34.3964 123.987C34.4267 124.282 34.5598 124.556 34.7723 124.763C34.9848 124.969 35.2631 125.094 35.5586 125.116V125.116Z" fill="#FEC656"/>
<path d="M39.2444 121.437L38.2151 122.466L37.5974 123.084L36.9333 123.748C36.9093 123.451 36.7807 123.171 36.5704 122.96C36.3601 122.748 36.0816 122.618 35.7844 122.592L36.4485 121.928L37.0662 121.317L38.0889 120.314C38.1648 120.239 38.2548 120.178 38.354 120.137C38.4531 120.096 38.5594 120.075 38.6667 120.075C38.774 120.075 38.8802 120.096 38.9794 120.137C39.0785 120.178 39.1686 120.239 39.2444 120.314C39.3203 120.39 39.3805 120.48 39.4216 120.58C39.4626 120.679 39.4838 120.785 39.4838 120.892C39.4838 121 39.4626 121.106 39.4216 121.205C39.3805 121.304 39.3203 121.394 39.2444 121.47V121.437Z" fill="#FEC656"/>
<path d="M37.5974 123.084C37.4939 122.822 37.3381 122.583 37.1394 122.384C36.9407 122.184 36.7033 122.027 36.4418 121.922C36.1956 121.819 35.9314 121.767 35.6648 121.769C35.1123 121.771 34.5829 121.991 34.1922 122.382C33.8015 122.772 33.5813 123.302 33.5795 123.854C33.5779 124.121 33.6299 124.385 33.7322 124.631C33.8378 124.891 33.9944 125.128 34.1929 125.326C34.3914 125.525 34.6277 125.681 34.8878 125.787C35.134 125.889 35.3982 125.941 35.6648 125.939C36.2173 125.938 36.7467 125.717 37.1374 125.327C37.5281 124.936 37.7484 124.407 37.7501 123.854C37.7508 123.59 37.6989 123.328 37.5974 123.084V123.084ZM35.6648 125.123H35.5586C35.2612 125.099 34.982 124.97 34.7705 124.76C34.5589 124.549 34.4287 124.271 34.403 123.974C34.3998 123.936 34.3998 123.898 34.403 123.861C34.4047 123.525 34.5389 123.203 34.7764 122.966C35.014 122.728 35.3356 122.594 35.6715 122.592H35.7777C36.0749 122.618 36.3534 122.748 36.5637 122.96C36.774 123.171 36.9026 123.451 36.9266 123.748C36.9299 123.783 36.9299 123.819 36.9266 123.854C36.9249 124.189 36.7916 124.51 36.5555 124.747C36.3195 124.984 35.9995 125.119 35.6648 125.123V125.123Z" fill="white"/>
<path d="M38.2151 122.466C37.9069 121.899 37.4185 121.451 36.8269 121.192C36.2354 120.934 35.5745 120.88 34.9489 121.039C34.3233 121.198 33.7687 121.562 33.3728 122.071C32.9768 122.581 32.7621 123.209 32.7627 123.854C32.7599 124.34 32.8835 124.818 33.1214 125.242C33.5036 125.891 34.1229 126.365 34.8485 126.566C35.5742 126.766 36.3493 126.677 37.0103 126.317C37.6713 125.957 38.1665 125.354 38.3913 124.635C38.6161 123.917 38.5529 123.139 38.2151 122.466V122.466ZM36.9334 123.854C36.9316 124.19 36.7974 124.512 36.5599 124.749C36.3224 124.987 36.0008 125.121 35.6649 125.123H35.5586C35.2613 125.099 34.9821 124.97 34.7705 124.76C34.559 124.549 34.4288 124.271 34.4031 123.974C34.3999 123.936 34.3999 123.898 34.4031 123.861C34.4048 123.525 34.539 123.203 34.7765 122.966C35.014 122.728 35.3357 122.594 35.6715 122.592H35.7778C36.075 122.618 36.3535 122.748 36.5638 122.96C36.7741 123.171 36.9027 123.451 36.9267 123.748C36.9322 123.783 36.9345 123.819 36.9334 123.854V123.854Z" fill="#FEC656"/>
<path d="M31.8529 51.0477C32.8762 51.0477 33.7057 50.2181 33.7057 49.1948C33.7057 48.1715 32.8762 47.3419 31.8529 47.3419C30.8296 47.3419 30 48.1715 30 49.1948C30 50.2181 30.8296 51.0477 31.8529 51.0477Z" fill="#96B945"/>
<path d="M100.203 38.2237V42.2881" stroke="#58C8E0" stroke-width="2.47" stroke-linecap="round" stroke-linejoin="round"/>
<path d="M98.171 40.2559H102.235" stroke="#58C8E0" stroke-width="2.47" stroke-linecap="round" stroke-linejoin="round"/>
<path d="M52.3672 34.4316H56.4315" stroke="#F16251" stroke-width="2.47" stroke-linecap="round" stroke-linejoin="round"/>
<path d="M54.3994 32.3994V36.4638" stroke="#F16251" stroke-width="2.47" stroke-linecap="round" stroke-linejoin="round"/>
<path d="M181.703 37.0549C182.356 37.0549 182.885 36.5256 182.885 35.8728C182.885 35.2199 182.356 34.6906 181.703 34.6906C181.05 34.6906 180.521 35.2199 180.521 35.8728C180.521 36.5256 181.05 37.0549 181.703 37.0549Z" stroke="#83CBAA" stroke-width="2.47" stroke-linecap="round" stroke-linejoin="round"/>
<path d="M222.154 65.9702H225.043" stroke="#58C8E0" stroke-width="2.47" stroke-linecap="round" stroke-linejoin="round"/>
<path d="M223.595 64.5225V67.4114" stroke="#58C8E0" stroke-width="2.47" stroke-linecap="round" stroke-linejoin="round"/>
<path d="M87.9437 157.013C65.9284 148.552 67.1902 132.826 66.3468 116.104C65.868 105.931 67.4492 95.7659 70.9956 86.219C65.8288 69.5365 69.0032 58.6783 70.6369 54.7269C70.8847 54.1698 71.2657 53.6821 71.7463 53.3069C72.2269 52.9317 72.7924 52.6804 73.393 52.5751C84.0188 50.6824 100.555 61.6469 100.555 61.6469C100.555 61.6469 107.515 56.5598 126.655 56.5598C145.794 56.5598 152.761 61.5938 152.761 61.5938C152.761 61.5938 169.324 50.6492 179.923 52.5751C180.533 52.6838 181.107 52.9429 181.591 53.3291C182.076 53.7152 182.457 54.2162 182.699 54.7866C184.333 58.7713 187.507 69.5963 182.34 86.2788C185.887 95.8257 187.468 105.991 186.989 116.164C186.139 132.886 187.408 148.612 165.392 157.073C144.227 165.129 109.082 165.129 87.9437 157.013V157.013Z" fill="#DADBE2"/>
<path d="M168.719 95.9084C154.6 84.9041 150.051 99.2289 126.655 99.2289C103.258 99.2289 98.7156 84.8709 84.5899 95.9084C70.4643 106.946 83.5473 122.473 81.0768 133.245C78.6063 144.017 78.1282 151.176 93.9273 156.489C109.727 161.801 120.857 161.994 126.655 161.994C132.452 161.994 143.59 161.755 159.389 156.489C175.188 151.222 174.703 144.043 172.233 133.245C169.762 122.446 182.845 106.919 168.719 95.9084Z" fill="#5B616C"/>
<path d="M84.5899 101.155C98.7156 90.1439 103.258 104.475 126.655 104.475C150.051 104.475 154.6 90.1173 168.719 101.155C172.957 104.475 174.736 108.168 175.228 112.04C175.852 106.315 174.843 100.683 168.719 95.9084C154.6 84.9041 150.051 99.2289 126.655 99.2289C103.258 99.2289 98.7156 84.8709 84.5899 95.9084C78.4668 100.683 77.464 106.315 78.0817 112.04C78.5797 108.168 80.3529 104.455 84.5899 101.155V101.155Z" fill="#45515D"/>
<path d="M126.655 57.6091C107.515 57.6091 100.555 62.6497 100.555 62.6497C100.37 63.7113 99.7724 64.6564 98.8926 65.2786C98.0128 65.9008 96.9225 66.1495 95.8599 65.9703H95.7935C87.4589 57.3368 74.7013 58.4127 74.7013 58.4127C70.4311 70.805 75.6909 83.2106 75.6909 83.2106C75.1131 87.4011 72.005 87.2816 72.005 87.2816C72.005 87.2816 66.5261 99.3817 67.3563 116.104C67.4692 118.256 67.5422 120.387 67.6352 122.486C70.378 80.8264 104.46 59.7542 123.268 65.4522C135.321 69.0982 118.327 85.4154 118.327 85.4154C139.532 71.1171 171.748 70.6987 179.485 98.505C190.11 136.625 177.824 149.323 177.771 149.509C186.856 140.729 186.305 128.696 186.943 116.104C187.421 105.931 185.84 95.7659 182.294 86.219C178.92 87.441 177.419 82.1746 177.419 82.1746C183.629 72.5582 178.037 58.6119 178.037 58.6119C168.912 56.9716 157.084 65.4323 157.084 65.4323C152.402 66.6609 152.714 62.6231 152.714 62.6231C152.714 62.6231 145.794 57.6091 126.655 57.6091V57.6091Z" fill="#CACCD3"/>
<path d="M75.963 139.115C74.1802 138.788 72.3795 138.566 70.5705 138.451C68.7753 138.333 66.9748 138.317 65.1779 138.405C63.4085 138.497 61.6483 138.719 59.9115 139.069C58.2361 139.435 56.6043 139.978 55.0436 140.689H55.0037C54.6065 140.872 54.1532 140.889 53.7434 140.737C53.3337 140.585 53.0011 140.276 52.8188 139.879C52.6365 139.482 52.6194 139.029 52.7714 138.619C52.9233 138.209 53.2318 137.877 53.629 137.694L53.8083 137.621C55.6668 137.029 57.584 136.639 59.5263 136.459C61.4145 136.326 63.3096 136.326 65.1978 136.459C67.0539 136.597 68.9007 136.839 70.7299 137.183C72.5512 137.523 74.3516 137.966 76.1224 138.511C76.1609 138.523 76.1966 138.543 76.2274 138.569C76.2583 138.595 76.2837 138.626 76.3023 138.662C76.3208 138.698 76.332 138.737 76.3354 138.777C76.3387 138.817 76.334 138.858 76.3217 138.896C76.3028 138.97 76.2563 139.033 76.1919 139.072C76.1275 139.112 76.0502 139.125 75.9763 139.109L75.963 139.115Z" fill="#CACCD3"/>
<path d="M75.7439 142.562C73.9432 142.759 72.1558 143.063 70.3912 143.472C68.6331 143.863 66.8991 144.355 65.1978 144.946C63.5276 145.537 61.9028 146.25 60.3365 147.078C58.8314 147.9 57.4178 148.88 56.1194 150V150.033C55.7892 150.327 55.356 150.477 54.9151 150.451C54.4742 150.424 54.0617 150.224 53.7685 149.894C53.4752 149.564 53.3252 149.13 53.3513 148.69C53.3775 148.249 53.5777 147.836 53.9079 147.543C53.9553 147.496 54.0089 147.456 54.0673 147.423C55.6801 146.33 57.4083 145.416 59.2208 144.701C60.9884 144.023 62.8043 143.479 64.6533 143.074C66.4729 142.681 68.3132 142.39 70.1654 142.204C72.0073 142.011 73.8588 141.924 75.7107 141.945C75.7918 141.958 75.8647 142.002 75.9142 142.067C75.9637 142.133 75.986 142.215 75.9763 142.296C75.9669 142.364 75.9359 142.426 75.888 142.474C75.84 142.522 75.7778 142.553 75.7107 142.562H75.7439Z" fill="#CACCD3"/>
<path d="M177.194 138.518C178.962 137.972 180.76 137.529 182.58 137.19C184.411 136.849 186.26 136.607 188.118 136.466C190.004 136.333 191.897 136.333 193.783 136.466C195.726 136.643 197.643 137.032 199.501 137.628C199.717 137.678 199.921 137.771 200.099 137.902C200.278 138.033 200.429 138.199 200.543 138.389C200.656 138.579 200.73 138.791 200.76 139.01C200.79 139.23 200.775 139.453 200.716 139.667C200.658 139.881 200.556 140.081 200.419 140.255C200.281 140.428 200.11 140.573 199.915 140.679C199.72 140.784 199.506 140.85 199.286 140.871C199.065 140.893 198.842 140.869 198.631 140.802L198.498 140.762L198.319 140.696H198.272C196.712 139.985 195.08 139.442 193.405 139.076C191.668 138.725 189.908 138.503 188.138 138.411C186.341 138.324 184.541 138.34 182.746 138.458C180.934 138.573 179.131 138.795 177.346 139.122C177.267 139.138 177.185 139.121 177.118 139.077C177.05 139.032 177.004 138.962 176.988 138.883C176.973 138.808 176.986 138.73 177.024 138.663C177.062 138.596 177.122 138.545 177.194 138.518V138.518Z" fill="#CACCD3"/>
<path d="M177.585 141.945C179.437 141.924 181.289 142.011 183.131 142.204C184.983 142.39 186.823 142.681 188.643 143.074C190.492 143.479 192.308 144.023 194.075 144.701C195.888 145.419 197.616 146.334 199.229 147.43C199.411 147.549 199.567 147.702 199.69 147.881C199.812 148.06 199.899 148.262 199.943 148.474C199.988 148.687 199.99 148.906 199.95 149.119C199.91 149.333 199.829 149.536 199.71 149.718C199.592 149.9 199.438 150.056 199.259 150.179C199.08 150.302 198.878 150.388 198.666 150.433C198.454 150.477 198.234 150.48 198.021 150.44C197.808 150.4 197.604 150.318 197.422 150.199H197.376C197.324 150.166 197.275 150.128 197.23 150.087L197.183 150.047C195.887 148.926 194.476 147.947 192.973 147.125C191.406 146.296 189.782 145.584 188.111 144.993C186.41 144.409 184.679 143.917 182.925 143.518C181.16 143.109 179.373 142.806 177.572 142.609C177.491 142.596 177.418 142.552 177.369 142.486C177.319 142.42 177.297 142.338 177.306 142.257C177.316 142.19 177.347 142.127 177.395 142.079C177.443 142.031 177.505 142 177.572 141.991L177.585 141.945Z" fill="#CACCD3"/>
<path d="M126.655 166.337C120.7 166.277 114.755 165.833 108.857 165.009C108.673 164.984 108.486 165 108.309 165.056C108.132 165.113 107.971 165.208 107.836 165.336C107.702 165.464 107.598 165.62 107.532 165.793C107.466 165.967 107.44 166.153 107.455 166.337C108.119 174.18 111.845 209.066 126.655 209.066C141.464 209.066 145.21 174.18 145.861 166.337C145.887 166.013 145.783 165.691 145.573 165.442C145.363 165.194 145.063 165.038 144.738 165.009C144.644 164.999 144.548 164.999 144.453 165.009C138.555 165.833 132.61 166.277 126.655 166.337V166.337Z" fill="#45515D"/>
<path d="M126.655 168.197C119.909 168.13 113.176 167.613 106.499 166.649C106.419 166.637 106.337 166.641 106.258 166.66C106.179 166.68 106.105 166.714 106.04 166.763C105.974 166.811 105.919 166.871 105.877 166.941C105.835 167.01 105.807 167.087 105.795 167.167C105.788 167.216 105.788 167.265 105.795 167.314C106.26 173.476 109.946 214.465 126.661 214.465C143.377 214.465 147.063 173.443 147.548 167.307C147.562 167.147 147.514 166.987 147.412 166.863C147.31 166.739 147.163 166.66 147.003 166.643H146.844C140.156 167.612 133.411 168.131 126.655 168.197V168.197Z" fill="#DADBE2"/>
<path d="M146.817 166.649C140.138 167.613 133.402 168.13 126.655 168.197C119.909 168.13 113.176 167.613 106.499 166.649C106.419 166.637 106.337 166.641 106.258 166.66C106.179 166.68 106.105 166.714 106.04 166.763C105.974 166.811 105.919 166.871 105.877 166.941C105.835 167.01 105.807 167.087 105.795 167.167C105.788 167.216 105.788 167.265 105.795 167.314C105.901 168.721 106.18 171.962 106.738 176.12C113.598 171.823 134.332 169.153 139.518 178.079C144.705 187.004 123.274 219.878 115.272 206.177C118.154 211.125 121.873 214.499 126.661 214.499C143.377 214.499 147.069 173.476 147.528 167.347C147.542 167.187 147.494 167.027 147.392 166.903C147.29 166.779 147.143 166.699 146.983 166.683L146.817 166.649Z" fill="#CACCD3"/>
<path d="M126.655 228C145.027 228 159.92 227.313 159.92 226.466C159.92 225.619 145.027 224.932 126.655 224.932C108.283 224.932 93.3893 225.619 93.3893 226.466C93.3893 227.313 108.283 228 126.655 228Z" fill="#DADBE2"/>
<path d="M122.497 137.621H127.173V142.297H122.497V137.621Z" fill="#64BCEA"/>
<path d="M127.531 137.621H132.207V142.297H127.531V137.621Z" fill="#64BCEA"/>
<path d="M109.926 126.431H114.601V131.106H109.926V126.431Z" fill="#64BCEA"/>
<path d="M109.926 121.41H114.601V126.086H109.926V121.41Z" fill="#64BCEA"/>
<path d="M90.5404 126.431H95.2157V131.106H90.5404V126.431Z" fill="#64BCEA"/>
<path d="M90.5404 121.41H95.2157V126.086H90.5404V121.41Z" fill="#64BCEA"/>
<path d="M105.257 116.39H109.932V121.065H105.257V116.39Z" fill="#64BCEA"/>
<path d="M100.236 116.39H104.912V121.065H100.236V116.39Z" fill="#64BCEA"/>
<path d="M95.2158 116.39H99.8912V121.065H95.2158V116.39Z" fill="#64BCEA"/>
<path d="M158.446 126.431H163.121V131.106H158.446V126.431Z" fill="#64BCEA"/>
<path d="M158.446 121.41H163.121V126.086H158.446V121.41Z" fill="#64BCEA"/>
<path d="M139.06 126.431H143.736V131.106H139.06V126.431Z" fill="#64BCEA"/>
<path d="M139.06 121.41H143.736V126.086H139.06V121.41Z" fill="#64BCEA"/>
<path d="M153.777 116.39H158.452V121.065H153.777V116.39Z" fill="#64BCEA"/>
<path d="M148.756 116.39H153.432V121.065H148.756V116.39Z" fill="#64BCEA"/>
<path d="M143.736 116.39H148.411V121.065H143.736V116.39Z" fill="#64BCEA"/>
</g>
<defs>
<linearGradient id="paint0_linear_10_3" x1="128" y1="0" x2="128" y2="256" gradientUnits="userSpaceOnUse">
<stop stop-color="#4C4C4C"/>
<stop offset="1" stop-color="#343434"/>
</linearGradient>
<clipPath id="clip0_10_3">
<rect width="256" height="256" fill="white"/>
</clipPath>
</defs>
</svg>
