<svg width="256" height="256" viewBox="0 0 256 256" fill="none" xmlns="http://www.w3.org/2000/svg">
<g clip-path="url(#clip0_3_354)">
<path d="M196 0H60C26.8629 0 0 26.8629 0 60V196C0 229.137 26.8629 256 60 256H196C229.137 256 256 229.137 256 196V60C256 26.8629 229.137 0 196 0Z" fill="white"/>
<path fill-rule="evenodd" clip-rule="evenodd" d="M152.429 38.4092L52.8299 45.7651C44.796 46.4611 42 51.711 42 58.005V167.192C42 172.094 43.74 176.288 47.9399 181.892L71.3517 212.335C75.1976 217.237 78.6956 218.287 86.0395 217.939L201.7 210.937C211.48 210.241 214.282 205.687 214.282 197.989V75.1528C214.282 71.1748 212.71 70.0288 208.084 66.6329C207.818 66.4411 207.552 66.2491 207.286 66.0569L175.498 43.6591C167.807 38.0672 164.663 37.3592 152.429 38.4092ZM88.6555 73.1428C79.2116 73.7788 77.0696 73.9228 71.7057 69.5608L58.0678 58.713C56.6818 57.309 57.3778 55.557 60.8698 55.209L156.617 48.2131C164.657 47.5111 168.845 50.3131 171.989 52.761L188.41 64.6589C189.112 65.0129 190.858 67.1069 188.758 67.1069L89.8794 73.0588L88.6555 73.1428ZM77.6456 196.939V92.6606C77.6456 88.1066 79.0436 86.0066 83.2315 85.6527L196.798 79.0047C200.65 78.6567 202.39 81.1047 202.39 85.6527V189.235C202.39 193.789 201.688 197.641 195.4 197.989L86.7235 204.289C80.4356 204.637 77.6456 202.543 77.6456 196.939ZM184.924 98.2525C185.62 101.402 184.924 104.552 181.774 104.912L176.536 105.95V182.942C171.989 185.389 167.801 186.787 164.303 186.787C158.711 186.787 157.313 185.035 153.125 179.792L118.871 125.9V178.04L129.707 180.494C129.707 180.494 129.707 186.793 120.965 186.793L96.8634 188.191C96.1614 186.787 96.8634 183.29 99.3053 182.594L105.599 180.848V111.908L96.8634 111.2C96.1614 108.05 97.9074 103.502 102.803 103.148L128.663 101.408L164.303 155.996V107.702L155.219 106.658C154.517 102.8 157.313 99.9985 160.805 99.6565L184.924 98.2525Z" fill="#4C4C4C"/>
</g>
<defs>
<clipPath id="clip0_3_354">
<rect width="256" height="256" fill="white"/>
</clipPath>
</defs>
</svg>
