<svg width="256" height="256" viewBox="0 0 256 256" fill="none" xmlns="http://www.w3.org/2000/svg">
<g clip-path="url(#clip0_14_288)">
<path d="M196 0H60C26.8629 0 0 26.8629 0 60V196C0 229.137 26.8629 256 60 256H196C229.137 256 256 229.137 256 196V60C256 26.8629 229.137 0 196 0Z" fill="url(#paint0_linear_14_288)"/>
<path d="M50.7273 111.706V208.979C50.7273 211.147 52.2546 213.011 54.3818 213.438L68.0182 216.165C70.8318 216.724 73.4546 214.574 73.4546 211.706V107.161L50.7273 111.706Z" fill="#188842"/>
<path d="M31.2545 189.943L145.541 224.938C148.736 225.884 152.195 225.006 154.55 222.652L187.377 180.552L32.8818 171.161C30.2455 170.965 28 173.047 28 175.693V185.588C28 187.597 29.3227 189.37 31.2545 189.943Z" fill="#B31919"/>
<path d="M50.7273 111.706L219.591 98.7018C224.336 98.3472 228 94.3927 228 89.6381V55.2472C228 49.3063 222.395 44.9654 216.645 46.4427L76.2955 83.7018C74.45 84.179 72.7955 85.2199 71.5773 86.6881L50.7273 111.706Z" fill="url(#paint1_linear_14_288)"/>
<path d="M185.309 30.179L158.036 35.6336C153.786 36.4836 150.727 40.2154 150.727 44.5472V178.593V214.893C150.727 219.138 148.132 222.956 144.182 224.52L144.25 224.556L145.541 224.938C148.736 225.884 152.195 225.006 154.55 222.652L193.518 183.684C195.223 181.979 196.182 179.67 196.182 177.256V39.0927C196.182 33.3563 190.932 29.0563 185.309 30.179Z" fill="url(#paint2_linear_14_288)"/>
</g>
<defs>
<linearGradient id="paint0_linear_14_288" x1="128" y1="0" x2="128" y2="256" gradientUnits="userSpaceOnUse">
<stop stop-color="#4C4C4C"/>
<stop offset="1" stop-color="#343434"/>
</linearGradient>
<linearGradient id="paint1_linear_14_288" x1="228" y1="43" x2="51" y2="46" gradientUnits="userSpaceOnUse">
<stop stop-color="#10B982"/>
<stop offset="1" stop-color="#0DA271"/>
</linearGradient>
<linearGradient id="paint2_linear_14_288" x1="170.182" y1="30" x2="170.182" y2="225.312" gradientUnits="userSpaceOnUse">
<stop stop-color="#EE4444"/>
<stop offset="1" stop-color="#C73737"/>
</linearGradient>
<clipPath id="clip0_14_288">
<rect width="256" height="256" fill="white"/>
</clipPath>
</defs>
</svg>
