<svg width="256" height="256" viewBox="0 0 256 256" fill="none" xmlns="http://www.w3.org/2000/svg">
<g clip-path="url(#clip0_3_360)">
<path d="M196 0H60C26.8629 0 0 26.8629 0 60V196C0 229.137 26.8629 256 60 256H196C229.137 256 256 229.137 256 196V60C256 26.8629 229.137 0 196 0Z" fill="url(#paint0_linear_3_360)"/>
<path fill-rule="evenodd" clip-rule="evenodd" d="M171.171 100.206C184.084 109.432 199.907 114.857 216.992 114.857V81.9905C213.755 81.9905 210.535 81.6545 207.372 80.9826V106.851C190.287 106.851 174.473 101.419 161.551 92.2002V159.26C161.551 192.807 134.338 220.003 100.776 220.003C88.2551 220.003 76.6114 216.217 66.9425 209.727C77.9798 221.002 93.3682 228 110.395 228C143.958 228 171.171 200.804 171.171 167.258V100.206ZM183.044 67.0528C176.448 59.8502 172.113 50.5336 171.171 40.2337V36.0056H162.051C164.345 49.0914 172.178 60.2763 183.044 67.0528ZM88.1732 183.99C84.4859 179.155 82.4947 173.247 82.5029 167.167C82.5029 151.82 94.9497 139.381 110.305 139.381C113.165 139.381 116.008 139.816 118.737 140.684V107.089C115.549 106.655 112.337 106.466 109.117 106.532V132.679C106.389 131.81 103.545 131.376 100.677 131.376C85.3217 131.376 72.8749 143.814 72.8749 159.162C72.8831 170.019 79.1024 179.418 88.1732 183.99Z" fill="#EC407A"/>
<path fill-rule="evenodd" clip-rule="evenodd" d="M161.55 92.2002C174.464 101.427 190.287 106.851 207.371 106.851V80.9826C197.833 78.9505 189.393 73.9685 183.043 67.0445C172.178 60.2681 164.353 49.0914 162.058 36.0056H138.107V167.258C138.05 182.556 125.627 194.945 110.305 194.945C101.275 194.945 93.2529 190.643 88.1726 183.982C79.1018 179.409 72.8825 170.011 72.8825 159.162C72.8825 143.814 85.3292 131.376 100.685 131.376C103.627 131.376 106.462 131.835 109.125 132.679V106.54C76.1519 107.22 49.636 134.146 49.636 167.266C49.636 183.801 56.2404 198.788 66.9582 209.735C76.6272 216.225 88.2709 220.011 100.791 220.011C134.354 220.011 161.567 192.815 161.567 159.268L161.55 92.2002Z" fill="white"/>
<path fill-rule="evenodd" clip-rule="evenodd" d="M207.371 80.9908V73.9931C198.768 74.0095 190.344 71.6005 183.043 67.0446C189.5 74.116 198.006 78.9915 207.371 80.9908ZM162.05 36.0056C161.829 34.7519 161.665 33.4982 161.55 32.2281V28H128.479V159.26C128.43 174.559 116 186.948 100.677 186.948C96.1783 186.948 91.9338 185.883 88.1727 183.982C93.253 190.643 101.275 194.945 110.305 194.945C125.628 194.945 138.05 182.556 138.107 167.258V36.0056H162.05ZM109.117 106.54V99.0914C106.355 98.7145 103.569 98.5261 100.775 98.5261C67.2042 98.5261 40 125.722 40 159.268C40 180.303 50.6932 198.837 66.942 209.735C56.2242 198.788 49.6198 183.801 49.6198 167.266C49.6198 134.146 76.1439 107.22 109.117 106.54Z" fill="#81D4FA"/>
</g>
<defs>
<linearGradient id="paint0_linear_3_360" x1="128" y1="0" x2="128" y2="256" gradientUnits="userSpaceOnUse">
<stop stop-color="#4C4C4C"/>
<stop offset="1" stop-color="#343434"/>
</linearGradient>
<clipPath id="clip0_3_360">
<rect width="256" height="256" fill="white"/>
</clipPath>
</defs>
</svg>
