<?xml version="1.0" encoding="utf-8"?>
<svg viewBox="0 0 48 48" width="48" height="48" xmlns="http://www.w3.org/2000/svg" xmlns:bx="https://boxy-svg.com">
  <linearGradient id="NvW_RwTAona1rlOp72mkqa" x1="24" x2="24" y1="42" y2="6.207" gradientUnits="userSpaceOnUse" gradientTransform="matrix(1, 0, 0, 1, 0, 0)">
    <stop offset="0" stop-color="#1ac8fc"/>
    <stop offset="0.258" stop-color="#1bb6fa"/>
    <stop offset="0.775" stop-color="#1c86f5"/>
    <stop offset="1" stop-color="#1d70f2"/>
  </linearGradient>
  <path fill="url(#NvW_RwTAona1rlOp72mkqa)" d="M 34 42 L 14 42 C 9.589 42 6 38.411 6 34 L 6 14 C 6 9.589 9.589 6 14 6 L 34 6 C 38.411 6 42 9.589 42 14 L 42 34 C 42 38.411 38.411 42 34 42 Z" transform="matrix(-1, 0, 0, -1, 48, 48)"/>
  <path d="M 14.719 33.288 L 14.719 28.331 L 11 28.331 L 11 37 L 19.669 37 L 19.669 33.288 L 14.719 33.288 Z M 33.287 28.358 L 33.287 33.288 L 28.358 33.288 L 28.338 33.259 L 28.338 37 L 37 37 L 37 28.331 L 33.259 28.331 L 33.287 28.358 Z M 14.719 19.642 L 14.719 14.712 L 19.641 14.712 L 19.669 14.74 L 19.669 11 L 11 11 L 11 19.669 L 14.746 19.669 L 14.719 19.642 Z M 28.338 11 L 28.338 14.712 L 33.287 14.712 L 33.287 19.669 L 37 19.669 L 37 11 L 28.338 11 Z" style="isolation:isolate" fill="#fff" opacity=".75" bx:origin="0.461538 0.461538"/>
  <path fill="#fff" d="M 24.592 19.669 L 27.879 19.669 L 22.922 14.712 L 28.338 14.712 L 28.338 11 L 19.669 11 L 19.669 14.74 L 24.592 19.669 Z M 25.87 30.792 L 23.409 28.331 L 20.128 28.331 L 24.229 32.44 L 25.077 33.288 L 19.669 33.288 L 19.669 37 L 28.338 37 L 28.338 33.259 L 25.87 30.792 Z M 33.287 23.381 L 33.287 25.077 L 32.439 24.23 L 28.338 20.128 L 28.338 23.409 L 30.799 25.87 L 33.259 28.331 L 37 28.331 L 37 19.669 L 33.287 19.669 L 33.287 23.381 Z M 14.719 22.923 L 19.669 27.872 L 19.669 24.591 L 14.746 19.669 L 11 19.669 L 11 28.331 L 14.719 28.331 L 14.719 22.923 Z" bx:origin="0.461538 0.461538"/>
</svg>