<svg width="48" height="48" viewBox="0 0 48 48" fill="none" xmlns="http://www.w3.org/2000/svg">
<path d="M34 42H14C9.589 42 6 38.411 6 34V14C6 9.589 9.589 6 14 6H34C38.411 6 42 9.589 42 14V34C42 38.411 38.411 42 34 42Z" fill="url(#paint0_linear_1_2)"/>
<path d="M33 22.5344H14C12.343 22.5344 11 21.1914 11 19.5344V16.2084C11 14.6844 12.142 13.4024 13.656 13.2284L32.541 11.0494C34.917 10.7744 37 11.6314 37 14.0224V19.5344C37 21.1914 34.657 22.5344 33 22.5344Z" fill="#61E3A7"/>
<path d="M13 24.5344H19C20.105 24.5344 21 25.4294 21 26.5344V32.4414C21 33.6364 19.959 34.5644 18.772 34.4284L12.772 33.7384C11.762 33.6224 11 32.7674 11 31.7514V26.5344C11 25.4294 11.895 24.5344 13 24.5344Z" fill="#EB6773"/>
<path d="M24.5 24.5344H27.5C28.328 24.5344 29 25.2064 29 26.0344V27.7094C29 28.5704 28.277 29.2544 27.418 29.2074L24.418 29.0424C23.622 28.9984 23 28.3414 23 27.5444V26.0344C23 25.2064 23.672 24.5344 24.5 24.5344Z" fill="#F2D33A"/>
<path d="M24.58 30.5584L27.58 30.7184C28.376 30.7604 29 31.4184 29 32.2164V33.9294C29 34.8264 28.217 35.5234 27.326 35.4194L24.326 35.0694C23.57 34.9814 23 34.3404 23 33.5794V32.0564C23 31.1964 23.721 30.5124 24.58 30.5584Z" fill="#222222"/>
<path d="M37 26.0344V28.1424C37 29.0024 36.279 29.6864 35.42 29.6404L32.42 29.4804C31.624 29.4384 31 28.7804 31 27.9824V26.0344C31 25.2064 31.672 24.5344 32.5 24.5344H35.5C36.328 24.5344 37 25.2064 37 26.0344Z" fill="#08B7E8"/>
<path d="M32.582 30.9914L35.582 31.1564C36.378 31.2004 37 31.8574 37 32.6544V34.8524C37 35.7484 36.219 36.4454 35.329 36.3424L32.329 35.9974C31.571 35.9104 31 35.2694 31 34.5074V32.4894C31 31.6284 31.723 30.9444 32.582 30.9914Z" fill="#A976F0"/>
<defs>
<linearGradient id="paint0_linear_1_2" x1="24" y1="6" x2="24" y2="42" gradientUnits="userSpaceOnUse">
<stop stop-color="#FCFCFC"/>
<stop offset="1" stop-color="#CCCCCC"/>
</linearGradient>
</defs>
</svg>
