<?xml version="1.0" encoding="utf-8"?>
<svg viewBox="0 0 48 48" width="48" height="48" xmlns="http://www.w3.org/2000/svg" xmlns:xlink="http://www.w3.org/1999/xlink" xmlns:bx="https://boxy-svg.com">
  <defs>
    <linearGradient id="gradient-0-0" gradientUnits="userSpaceOnUse" x1="24" y1="6" x2="24" y2="42" xlink:href="#gradient-0"/>
    <linearGradient id="gradient-0" bx:pinned="true">
      <stop style="stop-color: rgb(251, 198, 0);" offset="0"/>
      <stop style="stop-color: rgb(234, 128, 1);" offset="1"/>
    </linearGradient>
  </defs>
  <path d="M42,37c0,2.762-2.238,5-5,5H11c-2.762,0-5-2.238-5-5V11c0-2.762,2.238-5,5-5h26 c2.762,0,5,2.238,5,5V37z" style="fill: url(#gradient-0-0);"/>
  <path d="M 26.843 10.188 L 25.843 10.188 C 25.016 10.188 24.343 10.861 24.343 11.688 L 24.343 13.188 L 23.343 13.188 L 23.343 11.688 C 23.343 10.861 22.67 10.188 21.843 10.188 L 20.843 10.188 C 20.016 10.188 19.343 10.861 19.343 11.688 L 19.343 13.188 L 17.843 13.188 C 17.016 13.188 16.343 13.861 16.343 14.688 L 16.343 32.688 C 16.343 33.515 17.016 34.188 17.843 34.188 L 19.343 34.188 L 19.343 35.688 C 19.343 36.515 20.016 37.188 20.843 37.188 L 21.843 37.188 C 22.67 37.188 23.343 36.515 23.343 35.688 L 23.343 34.188 L 24.343 34.188 L 24.343 35.688 C 24.343 36.515 25.016 37.188 25.843 37.188 L 26.843 37.188 C 27.67 37.188 28.343 36.515 28.343 35.688 L 28.343 33.902 C 29.556 33.638 30.559 33.189 31.33 32.564 C 32.666 31.481 33.343 29.881 33.343 27.809 C 33.343 26.579 33.012 25.518 32.358 24.653 C 31.936 24.089 31.406 23.645 30.778 23.324 C 31.287 22.979 31.716 22.549 32.059 22.037 C 32.611 21.208 32.89 20.243 32.89 19.169 C 32.89 17.216 32.194 15.707 30.822 14.682 C 30.165 14.191 29.351 13.827 28.344 13.573 L 28.344 11.688 C 28.343 10.861 27.67 10.188 26.843 10.188 L 26.843 10.188 Z M 21.343 17.188 L 25.042 17.188 C 26.052 17.188 26.784 17.355 27.216 17.684 C 27.611 17.985 27.804 18.495 27.804 19.243 C 27.804 20.128 27.508 21.149 25.198 21.188 L 21.343 21.188 L 21.343 17.188 L 21.343 17.188 Z M 21.343 25.188 L 25.843 25.188 C 27.453 25.211 28.343 26.238 28.343 28.079 C 28.343 30.164 25.795 30.188 25.687 30.188 L 21.343 30.188 L 21.343 25.188 L 21.343 25.188 Z" opacity=".07"/>
  <path fill="#fff" d="M 20.843 10.688 L 21.843 10.688 C 22.395 10.688 22.843 11.136 22.843 11.688 L 22.843 14.688 C 22.843 15.24 22.395 15.688 21.843 15.688 L 20.843 15.688 C 20.291 15.688 19.843 15.24 19.843 14.688 L 19.843 11.688 C 19.843 11.136 20.291 10.688 20.843 10.688 Z M 25.843 10.688 L 26.843 10.688 C 27.395 10.688 27.843 11.136 27.843 11.688 L 27.843 14.688 C 27.843 15.24 27.395 15.688 26.843 15.688 L 25.843 15.688 C 25.291 15.688 24.843 15.24 24.843 14.688 L 24.843 11.688 C 24.843 11.136 25.291 10.688 25.843 10.688 Z M 20.843 31.688 L 21.843 31.688 C 22.395 31.688 22.843 32.136 22.843 32.688 L 22.843 35.688 C 22.843 36.24 22.395 36.688 21.843 36.688 L 20.843 36.688 C 20.291 36.688 19.843 36.24 19.843 35.688 L 19.843 32.688 C 19.843 32.136 20.291 31.688 20.843 31.688 Z M 25.843 31.688 L 26.843 31.688 C 27.395 31.688 27.843 32.136 27.843 32.688 L 27.843 35.688 C 27.843 36.24 27.395 36.688 26.843 36.688 L 25.843 36.688 C 25.291 36.688 24.843 36.24 24.843 35.688 L 24.843 32.688 C 24.843 32.136 25.291 31.688 25.843 31.688 Z M 16.843 32.688 L 16.843 14.688 C 16.843 14.136 17.291 13.688 17.843 13.688 L 25.042 13.688 C 27.452 13.688 29.276 14.153 30.522 15.083 C 31.768 16.013 32.389 17.376 32.389 19.169 C 32.389 20.149 32.139 21.013 31.643 21.759 C 31.143 22.505 30.448 23.052 29.557 23.4 C 30.573 23.658 31.373 24.173 31.959 24.955 C 32.546 25.731 32.843 26.68 32.843 27.809 C 32.843 29.731 32.234 31.188 31.015 32.176 C 29.796 33.164 28.062 33.668 25.808 33.688 L 17.843 33.688 C 17.291 33.688 16.843 33.24 16.843 32.688 Z M 20.843 21.688 L 25.206 21.688 C 27.269 21.653 28.304 20.864 28.304 19.243 C 28.304 18.337 28.042 17.684 27.519 17.286 C 26.996 16.888 26.171 16.688 25.042 16.688 L 20.843 16.688 L 20.843 21.688 Z M 20.843 24.688 L 20.843 30.688 L 25.687 30.688 C 26.648 30.688 28.843 30.219 28.843 28.079 C 28.843 25.939 27.726 24.715 25.843 24.688 L 20.843 24.688 Z"/>
</svg>