<svg viewBox="0 0 48 48" width="48" height="48" xmlns="http://www.w3.org/2000/svg" xmlns:xlink="http://www.w3.org/1999/xlink" xmlns:bx="https://boxy-svg.com"><defs><linearGradient id="a" bx:pinned="true"><stop style="stop-color:rgba(117,117,117,.8)" offset="0"/><stop style="stop-color:#323232" offset="1"/></linearGradient><linearGradient id="b" gradientUnits="userSpaceOnUse" x1="24" y1="6" x2="24" y2="42" xlink:href="#a"/></defs><path d="M42 37a5 5 0 0 1-5 5H11a5 5 0 0 1-5-5V11a5 5 0 0 1 5-5h26a5 5 0 0 1 5 5v26z" style="fill:url(#b)"/><path fill="#fff" d="m19.191 37.158-.01-.003a.126.126 0 0 1 .01.003Zm10.61-.597v-3.907c0-1.704-1.23-3.964-2.916-4.769 6.126-.582 9.049-3.371 9.049-7.16 0-1.63-.755-3.204-2.038-4.531.429-1.318.967-4.022-.158-5.049-2.765 0-4.436 1.643-4.831 2.083a14.984 14.984 0 0 0-4.487-.679c-1.587 0-3.098.245-4.473.677a6.619 6.619 0 0 0-4.829-2.081c-1.119 1.026-.588 3.718-.163 5.038-1.291 1.331-2.051 2.909-2.051 4.542 0 3.791 2.927 6.584 9.062 7.161-1.064.508-1.934 1.585-2.438 2.756-.937.134-1.931.17-2.596.17-1.371 0-1.716-.2-2.45-1.081-.737-.879-1.521-1.472-2.465-1.717-.51-.047-.849.317-.406.634 1.495.958 1.6 2.524 2.203 3.549.545.921 1.667 1.417 2.927 1.417h2.314v2.953c0 .155 2.686.822 5.371.822 3.058 0 5.375-.762 5.375-.828Z"/></svg>
