<svg width="256" height="256" viewBox="0 0 256 256" fill="none" xmlns="http://www.w3.org/2000/svg">
<g clip-path="url(#clip0_3_354)">
<path d="M196 0H60C26.8629 0 0 26.8629 0 60V196C0 229.137 26.8629 256 60 256H196C229.137 256 256 229.137 256 196V60C256 26.8629 229.137 0 196 0Z" fill="url(#paint0_linear_3_354)"/>
<path d="M46.0912 147.207C63.6036 142.379 84.2585 147.345 91.8576 174.909C91.8576 174.909 83.8585 185.826 80.7398 187.017C52.6477 159.772 30.3692 171.214 28.2789 163.643C26.5886 157.52 32.588 150.925 46.0912 147.207Z" fill="url(#paint1_linear_3_354)"/>
<path d="M204.155 103.65C186.642 108.478 171.444 123.319 179.039 150.883C179.039 150.883 192.599 155.506 195.889 154.93C206.059 117.139 229.961 116.21 227.871 108.64C226.186 102.516 217.653 99.931 204.155 103.65Z" fill="url(#paint2_linear_3_354)"/>
<path d="M66.37 109.592C66.37 109.592 59.6516 99.5977 51.6668 97.079C47.2149 95.6744 41.9203 96.7504 36.9494 98.1122C35.8638 101.807 35.0496 105.607 34.4163 109.468C36.5018 111.049 38.9015 112.492 41.6489 113.353C42.0012 113.463 42.325 113.534 42.6678 113.63C39.1206 117.077 36.3304 122.024 33.0546 124.824C33.045 124.876 33.0403 124.919 33.0403 124.966C33.0403 126.009 33.1641 127.023 33.1974 128.061C36.9779 129.266 43.2773 130.623 49.3718 128.947C66.1747 124.314 68.084 112.349 68.084 112.349C68.084 112.349 66.6318 111.811 64.4225 111.211C65.7081 110.306 66.37 109.592 66.37 109.592Z" fill="#424242"/>
<path d="M99.5044 82.6996C102.037 83.8376 113.922 82.871 113.922 82.871C125.673 62.1828 116.436 47.1083 103.29 39.6425C100.057 37.8093 97.1428 36.6571 94.5288 36C90.5578 37.5094 86.663 39.1806 82.9681 41.1851C84.7251 46.5131 99.0711 54.5075 99.5044 82.6996Z" fill="#A4E140"/>
<path d="M172.635 70.5533C167.787 52.9648 149.599 42.6326 132.01 47.4797L79.2781 62.0114C61.6896 66.8585 51.3574 85.047 56.2044 102.636L87.7153 211.033C100.033 216.847 113.746 220.194 128.268 220.194C159.712 220.194 187.514 204.886 204.855 181.384L172.635 70.5533Z" fill="url(#paint3_linear_3_354)"/>
<path d="M180.343 81.095C179.853 79.3143 178.653 77.924 177.143 77.1145C177.91 75.6956 178.162 73.9958 177.7 72.3198C177.172 70.401 175.82 68.9535 174.144 68.1822C175.353 66.6252 175.858 64.5492 175.296 62.5018C174.52 59.6879 171.992 57.8547 169.216 57.7833L169.192 57.6976C167.83 57.6881 144.076 57.6357 108.746 67.368C74.2595 76.8717 54.2474 90.694 54.2474 90.694C53.5617 99.9691 61.0038 120.038 61.0038 120.038C61.2609 119.886 86.4581 104.831 116.769 96.4743C147.889 87.899 177.172 87.9657 177.453 87.9705C179.753 86.4754 181.11 83.8804 180.343 81.095Z" fill="url(#paint4_linear_3_354)"/>
<path d="M93.7669 129.423C96.1494 129.423 98.0807 127.492 98.0807 125.109C98.0807 122.727 96.1494 120.795 93.7669 120.795C91.3845 120.795 89.4531 122.727 89.4531 125.109C89.4531 127.492 91.3845 129.423 93.7669 129.423Z" fill="#424242"/>
<path d="M151.937 113.391C154.319 113.391 156.251 111.46 156.251 109.078C156.251 106.695 154.319 104.764 151.937 104.764C149.554 104.764 147.623 106.695 147.623 109.078C147.623 111.46 149.554 113.391 151.937 113.391Z" fill="#424242"/>
<path d="M169.744 124.995C172.449 134.808 165.588 158.987 136.577 166.981C107.456 175.004 89.3151 157.829 86.582 147.912C82.7824 134.123 102.518 140.531 127.401 133.68C152.346 126.804 165.959 111.258 169.744 124.995Z" fill="url(#paint5_linear_3_354)"/>
<path d="M135.996 164.905C148.323 161.51 156.055 153.101 161.345 146.207C157.407 139.898 149.727 136.584 142.19 138.66C137.195 140.036 133.386 143.507 131.296 147.831C127.287 145.183 122.24 144.155 117.24 145.531C109.684 147.612 104.775 154.42 104.651 161.881C112.717 165.076 123.635 168.309 135.996 164.905Z" fill="#FFADC8"/>
<path d="M122.735 157.372C120.292 158.044 118.317 159.534 116.931 161.434C115.05 158.025 111.036 156.206 107.118 157.287C103.918 158.168 101.68 160.753 101.018 163.786C109.541 168.538 121.502 171.071 136.353 167.033C136.305 166.329 136.186 165.614 135.991 164.905C134.41 159.163 128.473 155.792 122.735 157.372Z" fill="white"/>
<path d="M136.772 166.919C151.551 162.791 160.526 154.458 165.421 145.993C163.302 143.75 160.074 142.693 156.893 143.574C152.975 144.655 150.461 148.273 150.589 152.163C148.427 151.24 145.966 150.973 143.523 151.649C137.781 153.23 134.41 159.167 135.991 164.91C136.191 165.614 136.453 166.286 136.772 166.919Z" fill="white"/>
<path d="M136.357 167.033L136.772 166.919L136.357 165.114L135.762 164.862L135.358 165.971L136.357 167.033Z" fill="white"/>
</g>
<defs>
<linearGradient id="paint0_linear_3_354" x1="112.032" y1="0.262399" x2="154.195" y2="337.568" gradientUnits="userSpaceOnUse">
<stop stop-color="#33BEF0"/>
<stop offset="0.048" stop-color="#30BAEE"/>
<stop offset="0.429" stop-color="#1B9DE3"/>
<stop offset="0.76" stop-color="#0F8BDC"/>
<stop offset="1" stop-color="#0A85D9"/>
</linearGradient>
<linearGradient id="paint1_linear_3_354" x1="45.139" y1="150.183" x2="73.0645" y2="177.784" gradientUnits="userSpaceOnUse">
<stop stop-color="#A4E140"/>
<stop offset="1" stop-color="#66AB30"/>
</linearGradient>
<linearGradient id="paint2_linear_3_354" x1="177.034" y1="128.452" x2="228" y2="128.452" gradientUnits="userSpaceOnUse">
<stop stop-color="#66AB30"/>
<stop offset="1" stop-color="#A4E140"/>
</linearGradient>
<linearGradient id="paint3_linear_3_354" x1="104.513" y1="53.579" x2="156.517" y2="230.283" gradientUnits="userSpaceOnUse">
<stop stop-color="#A4E140"/>
<stop offset="0.253" stop-color="#9DDC3E"/>
<stop offset="0.612" stop-color="#8BCE3A"/>
<stop offset="1" stop-color="#6FBA34"/>
</linearGradient>
<linearGradient id="paint4_linear_3_354" x1="108.979" y1="63.8446" x2="120.216" y2="97.5504" gradientUnits="userSpaceOnUse">
<stop stop-color="#636363"/>
<stop offset="0.168" stop-color="#5B5B5B"/>
<stop offset="0.646" stop-color="#4A4A4A"/>
<stop offset="1" stop-color="#444444"/>
</linearGradient>
<linearGradient id="paint5_linear_3_354" x1="121.783" y1="112.911" x2="133.12" y2="154.768" gradientUnits="userSpaceOnUse">
<stop stop-color="#636363"/>
<stop offset="0.402" stop-color="#5A5A5A"/>
<stop offset="1" stop-color="#444444"/>
</linearGradient>
<clipPath id="clip0_3_354">
<rect width="256" height="256" fill="white"/>
</clipPath>
</defs>
</svg>
