<?xml version="1.0" encoding="utf-8"?>
<svg viewBox="0 0 48 48" width="48" height="48" xmlns="http://www.w3.org/2000/svg" xmlns:xlink="http://www.w3.org/1999/xlink" xmlns:bx="https://boxy-svg.com">
  <defs>
    <linearGradient id="gradient-0-0" gradientUnits="userSpaceOnUse" x1="24" y1="6" x2="24" y2="42" xlink:href="#gradient-0"/>
    <linearGradient id="gradient-0" bx:pinned="true">
      <stop style="stop-color: rgb(252, 252, 252);" offset="0"/>
      <stop style="stop-color: rgb(204, 204, 204);" offset="1"/>
    </linearGradient>
  </defs>
  <path d="M 34 42 L 14 42 C 9.589 42 6 38.411 6 34 L 6 14 C 6 9.589 9.589 6 14 6 L 34 6 C 38.411 6 42 9.589 42 14 L 42 34 C 42 38.411 38.411 42 34 42 Z" style="fill-rule: nonzero; paint-order: fill; fill: url(#gradient-0-0);"/>
  <path fill="#FFB74D" d="M 24.313 23.284 C 24.204 23.159 24.092 23.036 24 22.9 C 23.907 23.036 23.795 23.159 23.685 23.284 C 23.791 23.292 23.892 23.3 24 23.3 C 24.107 23.3 24.211 23.292 24.313 23.284 Z M 23.504 17.565 C 23.693 17.755 23.855 17.96 24 18.172 C 24.144 17.96 24.306 17.755 24.495 17.565 L 27.958 14.1 C 28.03 14.03 28.112 13.98 28.183 13.916 C 28.038 11.731 26.223 10 24 10 C 21.776 10 19.961 11.731 19.815 13.916 C 19.887 13.98 19.969 14.03 20.041 14.1 L 23.504 17.565 Z" bx:origin="0.438166 1.021442"/>
  <path fill="#64B5F6" d="M 23.685 24.716 C 23.795 24.841 23.907 24.964 24 25.1 C 24.092 24.967 24.204 24.841 24.313 24.716 C 24.211 24.708 24.107 24.7 24 24.7 C 23.892 24.7 23.791 24.708 23.685 24.716 Z M 24.495 30.435 C 24.306 30.245 24.144 30.04 24 29.828 C 23.855 30.043 23.693 30.246 23.504 30.435 L 20.04 33.9 C 19.969 33.969 19.887 34.02 19.815 34.084 C 19.961 36.269 21.776 38 24 38 C 26.223 38 28.038 36.269 28.184 34.084 C 28.113 34.02 28.03 33.969 27.959 33.9 L 24.495 30.435 Z" bx:origin="0.438112 -0.083821"/>
  <path fill="#F48FB1" d="M 17.564 24.495 C 17.754 24.306 17.958 24.144 18.172 24 C 17.958 23.855 17.754 23.693 17.564 23.505 L 14.099 20.041 C 14.03 19.969 13.979 19.888 13.916 19.815 C 11.729 19.961 10 21.777 10 24 C 10 26.223 11.729 28.038 13.916 28.184 C 13.979 28.113 14.03 28.03 14.099 27.959 L 17.564 24.495 Z M 23.283 23.687 C 23.158 23.796 23.035 23.908 22.899 24 C 23.035 24.092 23.159 24.204 23.283 24.313 C 23.291 24.211 23.3 24.107 23.3 24 C 23.3 23.893 23.291 23.791 23.283 23.687 Z" bx:origin="1.013645 0.450502"/>
  <path fill="#8BC34A" d="M 24.7 24 C 24.7 24.107 24.708 24.211 24.715 24.313 C 24.841 24.204 24.963 24.092 25.1 24 C 24.967 23.908 24.841 23.796 24.715 23.687 C 24.708 23.791 24.7 23.893 24.7 24 Z M 38 24 C 38 21.777 36.269 19.961 34.083 19.816 C 34.02 19.888 33.969 19.97 33.9 20.041 L 30.433 23.505 C 30.244 23.694 30.039 23.856 29.827 24.001 C 30.041 24.145 30.245 24.307 30.433 24.496 L 33.9 27.959 C 33.969 28.031 34.02 28.113 34.083 28.187 C 36.269 28.038 38 26.223 38 24 Z" bx:origin="-0.091618 0.450322"/>
  <path fill="#C0CA33" d="M 28.2 19.1 C 28.2 19.364 28.172 19.623 28.126 19.875 C 28.376 19.827 28.635 19.8 28.9 19.8 L 33.8 19.8 C 33.895 19.8 33.989 19.808 34.083 19.816 C 35.518 18.165 35.47 15.672 33.9 14.1 C 32.327 12.531 29.834 12.481 28.183 13.916 C 28.191 14.009 28.2 14.105 28.2 14.2 L 28.2 19.1 Z M 24.715 23.687 C 24.727 23.529 24.746 23.376 24.774 23.225 C 24.622 23.254 24.469 23.273 24.313 23.284 C 24.376 23.357 24.425 23.437 24.495 23.505 C 24.563 23.575 24.643 23.624 24.715 23.687 Z" bx:origin="-0.076961 0.990596"/>
  <path fill="#F9A825" d="M 24.495 17.565 C 24.306 17.755 24.144 17.96 24 18.172 C 24.972 19.595 24.972 21.478 24 22.9 C 24.092 23.036 24.204 23.159 24.313 23.284 C 24.471 23.273 24.622 23.254 24.774 23.225 C 25.09 21.528 26.427 20.191 28.124 19.875 C 28.172 19.623 28.2 19.364 28.2 19.1 L 28.2 14.2 C 28.2 14.105 28.191 14.009 28.184 13.916 C 28.113 13.98 28.03 14.03 27.959 14.1 L 24.495 17.565 Z" bx:origin="-0.123457 1.032101"/>
  <path fill="#689F38" d="M 28.9 19.8 C 28.635 19.8 28.376 19.827 28.126 19.875 C 27.809 21.572 26.472 22.909 24.775 23.225 C 24.747 23.376 24.728 23.529 24.717 23.685 C 24.842 23.795 24.967 23.907 25.101 23.999 C 26.523 23.026 28.407 23.026 29.828 23.999 C 30.043 23.855 30.247 23.693 30.436 23.504 L 33.9 20.04 C 33.97 19.969 34.021 19.887 34.084 19.812 C 33.989 19.808 33.895 19.8 33.8 19.8 L 28.9 19.8 Z" bx:origin="-0.13185 0.901457"/>
  <path fill="#827717" d="M 28.126 19.875 C 26.428 20.191 25.091 21.528 24.775 23.225 C 26.47 22.909 27.808 21.572 28.126 19.875 Z" bx:origin="-0.385829 1.107397"/>
  <path fill="#BA68C8" d="M 19.8 28.9 C 19.8 28.636 19.827 28.377 19.874 28.126 C 19.623 28.173 19.363 28.2 19.1 28.2 L 14.2 28.2 C 14.104 28.2 14.009 28.192 13.916 28.184 C 12.481 29.835 12.53 32.332 14.099 33.901 C 15.671 35.469 18.164 35.519 19.815 34.084 C 19.808 33.991 19.8 33.895 19.8 33.8 L 19.8 28.9 Z M 23.283 24.313 C 23.272 24.471 23.254 24.622 23.225 24.774 C 23.376 24.747 23.529 24.727 23.685 24.716 C 23.623 24.643 23.573 24.562 23.504 24.495 C 23.437 24.426 23.356 24.376 23.283 24.313 Z" bx:origin="0.981189 -0.067363"/>
  <path fill="#5C6BC0" d="M 23.504 30.435 C 23.693 30.245 23.855 30.04 24 29.828 C 23.026 28.406 23.026 26.523 24 25.1 C 23.907 24.967 23.795 24.841 23.685 24.716 C 23.528 24.727 23.376 24.747 23.225 24.774 C 22.909 26.472 21.572 27.809 19.875 28.124 C 19.827 28.377 19.8 28.636 19.8 28.9 L 19.8 33.8 C 19.8 33.895 19.808 33.991 19.815 34.084 C 19.887 34.02 19.969 33.969 20.041 33.9 L 23.504 30.435 Z" bx:origin="0.876543 -0.120655"/>
  <path fill="#D81B60" d="M 19.1 28.2 C 19.363 28.2 19.623 28.173 19.874 28.126 C 20.19 26.428 21.527 25.091 23.224 24.776 C 23.253 24.625 23.272 24.471 23.283 24.316 C 23.158 24.205 23.035 24.093 22.899 24.001 C 21.477 24.975 19.594 24.975 18.171 24.001 C 17.957 24.146 17.754 24.308 17.564 24.496 L 14.099 27.96 C 14.029 28.032 13.979 28.114 13.915 28.188 C 14.009 28.192 14.104 28.2 14.2 28.2 L 19.1 28.2 Z" bx:origin="1.021142 -0.099037"/>
  <path fill="#880E4F" d="M 19.874 28.126 C 21.57 27.809 22.908 26.473 23.224 24.776 C 21.527 25.091 20.191 26.428 19.874 28.126 Z" bx:origin="1.076756 -0.355308"/>
  <path fill="#FF5252" d="M 23.685 23.284 C 23.528 23.273 23.376 23.254 23.225 23.225 C 23.254 23.376 23.272 23.529 23.283 23.687 C 23.356 23.624 23.437 23.575 23.504 23.505 C 23.573 23.437 23.623 23.357 23.685 23.284 Z M 19.1 19.8 C 19.363 19.8 19.623 19.827 19.874 19.875 C 19.827 19.623 19.8 19.364 19.8 19.1 L 19.8 14.2 C 19.8 14.105 19.808 14.009 19.815 13.916 C 18.165 12.481 15.671 12.53 14.099 14.1 C 12.53 15.672 12.481 18.165 13.916 19.816 C 14.009 19.808 14.104 19.8 14.2 19.8 L 19.1 19.8 Z" bx:origin="0.981189 0.990596"/>
  <path fill="#EF6C00" d="M 19.8 19.1 C 19.8 19.364 19.827 19.623 19.874 19.875 C 21.57 20.191 22.908 21.528 23.224 23.225 C 23.375 23.253 23.528 23.272 23.685 23.283 C 23.795 23.158 23.907 23.035 23.999 22.899 C 23.026 21.477 23.026 19.595 23.999 18.172 C 23.853 17.958 23.692 17.754 23.504 17.564 L 20.04 14.099 C 19.968 14.03 19.887 13.979 19.812 13.916 C 19.808 14.009 19.8 14.105 19.8 14.2 L 19.8 19.1 Z" bx:origin="0.87676 1.032215"/>
  <path fill="#F44336" d="M 17.564 23.505 C 17.754 23.694 17.958 23.856 18.172 24 C 19.594 23.028 21.477 23.028 22.899 24 C 23.035 23.908 23.159 23.796 23.283 23.687 C 23.272 23.529 23.254 23.376 23.225 23.225 C 21.528 22.909 20.191 21.572 19.875 19.875 C 19.623 19.827 19.363 19.8 19.1 19.8 L 14.2 19.8 C 14.104 19.8 14.009 19.808 13.916 19.816 C 13.979 19.888 14.03 19.97 14.099 20.041 L 17.564 23.505 Z" bx:origin="1.021145 0.901235"/>
  <path fill="#DD2C00" d="M 19.874 19.875 C 20.19 21.572 21.527 22.909 23.224 23.225 C 22.908 21.528 21.572 20.191 19.874 19.875 Z" bx:origin="1.076756 1.107397"/>
  <path fill="#E65100" d="M 24 18.172 C 23.026 19.595 23.026 21.477 24 22.899 C 24.972 21.477 24.972 19.595 24 18.172 Z" bx:origin="0.145167 1.145239"/>
  <path fill="#B71C1C" d="M 18.171 24 C 19.594 24.972 21.477 24.972 22.899 24 C 21.477 23.028 19.594 23.028 18.171 24 Z" bx:origin="1.123273 0.215404"/>
  <path fill="#00ACC1" d="M 28.9 28.2 C 28.635 28.2 28.376 28.173 28.126 28.126 C 28.172 28.377 28.2 28.636 28.2 28.9 L 28.2 33.8 C 28.2 33.895 28.191 33.991 28.184 34.084 C 29.834 35.519 32.331 35.47 33.9 33.9 C 35.469 32.328 35.518 29.834 34.084 28.184 C 33.989 28.192 33.895 28.2 33.8 28.2 L 28.9 28.2 Z M 24.313 24.716 C 24.471 24.727 24.622 24.747 24.774 24.774 C 24.746 24.622 24.727 24.469 24.715 24.313 C 24.642 24.376 24.562 24.425 24.495 24.495 C 24.426 24.563 24.376 24.643 24.313 24.716 Z" bx:origin="-0.076963 -0.067361"/>
  <path fill="#0277BD" d="M 28.2 28.9 C 28.2 28.636 28.172 28.377 28.126 28.126 C 26.428 27.809 25.091 26.473 24.775 24.776 C 24.624 24.747 24.471 24.729 24.314 24.717 C 24.205 24.842 24.093 24.967 24.001 25.101 C 24.975 26.524 24.975 28.407 24.001 29.829 C 24.146 30.044 24.308 30.247 24.496 30.436 L 27.959 33.901 C 28.032 33.97 28.113 34.021 28.187 34.085 C 28.191 33.991 28.2 33.895 28.2 33.8 L 28.2 28.9 Z" bx:origin="-0.123734 -0.120766"/>
  <path fill="#00796B" d="M 30.433 24.495 C 30.244 24.306 30.04 24.144 29.827 24 C 28.405 24.972 26.523 24.972 25.1 24 C 24.967 24.092 24.841 24.204 24.715 24.313 C 24.727 24.471 24.746 24.622 24.774 24.774 C 26.47 25.091 27.808 26.427 28.124 28.124 C 28.376 28.173 28.635 28.2 28.9 28.2 L 33.8 28.2 C 33.895 28.2 33.989 28.192 34.083 28.184 C 34.02 28.113 33.969 28.03 33.9 27.959 L 30.433 24.495 Z" bx:origin="-0.131614 -0.098765"/>
  <path fill="#006064" d="M 28.126 28.126 C 27.809 26.428 26.472 25.091 24.775 24.776 C 25.091 26.472 26.428 27.809 28.126 28.126 Z" bx:origin="-0.385829 -0.355308"/>
  <path fill="#1B5E20" d="M 25.1 24 C 26.523 24.972 28.405 24.972 29.827 24 C 28.406 23.028 26.523 23.028 25.1 24 Z" bx:origin="-0.342475 0.215404"/>
  <path fill="#0D47A1" d="M 24 29.828 C 24.972 28.406 24.972 26.523 24 25.1 C 23.026 26.523 23.026 28.406 24 29.828 Z" bx:origin="0.145167 -0.320465"/>
</svg>